STARTFONT 2.1
FONT -FontForge-Libre Bodoni v2002-Regular-R-Normal--10-100-75-75-P-57-ISO10646-1
SIZE 10 75 75
FONTBOUNDINGBOX 19 16 -5 -4
COMMENT "Generated by fontforge, http://fontforge.sourceforge.net"
COMMENT "Copyright \(c\) 2014, Impallari Type \(www.impallari.com\)"
STARTPROPERTIES 39
FOUNDRY "FontForge"
FAMILY_NAME "Libre Bodoni v2002"
WEIGHT_NAME "Regular"
SLANT "R"
SETWIDTH_NAME "Normal"
ADD_STYLE_NAME ""
PIXEL_SIZE 10
POINT_SIZE 100
RESOLUTION_X 75
RESOLUTION_Y 75
SPACING "P"
AVERAGE_WIDTH 57
CHARSET_REGISTRY "ISO10646"
CHARSET_ENCODING "1"
FONTNAME_REGISTRY ""
CHARSET_COLLECTIONS "ISO8859-2 ISO8859-9 ISO8859-4 ISO10646-1"
FONT_NAME "LibreBodoniv2002-Bold"
FACE_NAME "Libre Bodoni v2002 Bold"
COPYRIGHT "Copyright \(c\) 2014, Impallari Type \(www.impallari.com\)"
FONT_VERSION "002.002"
FONT_ASCENT 8
FONT_DESCENT 2
UNDERLINE_POSITION -1
UNDERLINE_THICKNESS 1
X_HEIGHT 4
CAP_HEIGHT 7
RAW_ASCENT 800
RAW_DESCENT 200
NORM_SPACE 2
RELATIVE_WEIGHT 40
RELATIVE_SETWIDTH 50
SUPERSCRIPT_X 0
SUPERSCRIPT_Y 3
SUPERSCRIPT_SIZE 6
SUBSCRIPT_X 0
SUBSCRIPT_Y 0
SUBSCRIPT_SIZE 6
AVG_LOWERCASE_WIDTH 53
AVG_UPPERCASE_WIDTH 74
ENDPROPERTIES
CHARS 633
STARTCHAR CR
ENCODING 13
SWIDTH 160 0
DWIDTH 2 0
BBX 1 1 0 0
BITMAP
00
ENDCHAR
STARTCHAR space
ENCODING 32
SWIDTH 160 0
DWIDTH 2 0
BBX 1 1 0 0
BITMAP
00
ENDCHAR
STARTCHAR exclam
ENCODING 33
SWIDTH 307 0
DWIDTH 3 0
BBX 1 8 1 0
BITMAP
80
80
80
80
80
80
80
80
ENDCHAR
STARTCHAR quotedbl
ENCODING 34
SWIDTH 447 0
DWIDTH 4 0
BBX 4 3 0 5
BITMAP
F0
50
A0
ENDCHAR
STARTCHAR numbersign
ENCODING 35
SWIDTH 546 0
DWIDTH 5 0
BBX 5 8 0 0
BITMAP
48
50
50
70
50
F8
50
A0
ENDCHAR
STARTCHAR dollar
ENCODING 36
SWIDTH 594 0
DWIDTH 6 0
BBX 6 9 0 -1
BITMAP
30
F8
BC
70
78
7C
F4
78
30
ENDCHAR
STARTCHAR percent
ENCODING 37
SWIDTH 913 0
DWIDTH 9 0
BBX 9 8 0 0
BITMAP
7200
5400
D400
5800
6F00
1480
1480
2700
ENDCHAR
STARTCHAR ampersand
ENCODING 38
SWIDTH 836 0
DWIDTH 8 0
BBX 7 8 0 0
BITMAP
3C
24
38
38
5A
CC
C4
7E
ENDCHAR
STARTCHAR quotesingle
ENCODING 39
SWIDTH 244 0
DWIDTH 2 0
BBX 2 3 0 5
BITMAP
C0
40
80
ENDCHAR
STARTCHAR parenleft
ENCODING 40
SWIDTH 309 0
DWIDTH 3 0
BBX 3 9 0 -1
BITMAP
20
40
40
C0
C0
C0
40
40
40
ENDCHAR
STARTCHAR parenright
ENCODING 41
SWIDTH 309 0
DWIDTH 3 0
BBX 3 9 0 -1
BITMAP
80
40
40
60
60
60
40
40
80
ENDCHAR
STARTCHAR asterisk
ENCODING 42
SWIDTH 443 0
DWIDTH 4 0
BBX 4 4 0 4
BITMAP
20
D0
F0
30
ENDCHAR
STARTCHAR plus
ENCODING 43
SWIDTH 578 0
DWIDTH 6 0
BBX 5 4 0 1
BITMAP
20
F8
20
20
ENDCHAR
STARTCHAR comma
ENCODING 44
SWIDTH 308 0
DWIDTH 3 0
BBX 2 4 1 -2
BITMAP
80
C0
80
80
ENDCHAR
STARTCHAR hyphen
ENCODING 45
SWIDTH 395 0
DWIDTH 4 0
BBX 3 1 0 2
BITMAP
E0
ENDCHAR
STARTCHAR period
ENCODING 46
SWIDTH 274 0
DWIDTH 3 0
BBX 1 2 1 0
BITMAP
80
80
ENDCHAR
STARTCHAR slash
ENCODING 47
SWIDTH 190 0
DWIDTH 2 0
BBX 2 7 0 0
BITMAP
40
40
40
80
80
80
80
ENDCHAR
STARTCHAR zero
ENCODING 48
SWIDTH 727 0
DWIDTH 7 0
BBX 7 7 0 0
BITMAP
3C
44
46
C6
46
44
38
ENDCHAR
STARTCHAR one
ENCODING 49
SWIDTH 480 0
DWIDTH 5 0
BBX 3 7 1 0
BITMAP
C0
40
40
40
40
40
E0
ENDCHAR
STARTCHAR two
ENCODING 50
SWIDTH 625 0
DWIDTH 6 0
BBX 6 7 0 0
BITMAP
F8
4C
08
18
20
44
FC
ENDCHAR
STARTCHAR three
ENCODING 51
SWIDTH 602 0
DWIDTH 6 0
BBX 6 7 0 0
BITMAP
78
48
10
38
0C
C8
78
ENDCHAR
STARTCHAR four
ENCODING 52
SWIDTH 670 0
DWIDTH 7 0
BBX 5 7 0 0
BITMAP
18
38
58
98
98
78
18
ENDCHAR
STARTCHAR five
ENCODING 53
SWIDTH 620 0
DWIDTH 6 0
BBX 6 7 0 0
BITMAP
78
80
78
0C
0C
CC
78
ENDCHAR
STARTCHAR six
ENCODING 54
SWIDTH 630 0
DWIDTH 6 0
BBX 6 8 0 0
BITMAP
18
20
60
78
CC
4C
4C
38
ENDCHAR
STARTCHAR seven
ENCODING 55
SWIDTH 590 0
DWIDTH 6 0
BBX 5 7 1 0
BITMAP
F8
10
10
20
20
60
60
ENDCHAR
STARTCHAR eight
ENCODING 56
SWIDTH 637 0
DWIDTH 6 0
BBX 6 7 0 0
BITMAP
78
4C
48
78
CC
CC
78
ENDCHAR
STARTCHAR nine
ENCODING 57
SWIDTH 630 0
DWIDTH 6 0
BBX 6 7 0 0
BITMAP
78
CC
CC
4C
38
18
20
ENDCHAR
STARTCHAR colon
ENCODING 58
SWIDTH 274 0
DWIDTH 3 0
BBX 1 5 1 0
BITMAP
80
80
00
80
80
ENDCHAR
STARTCHAR semicolon
ENCODING 59
SWIDTH 308 0
DWIDTH 3 0
BBX 2 7 1 -2
BITMAP
80
80
00
80
C0
80
80
ENDCHAR
STARTCHAR less
ENCODING 60
SWIDTH 588 0
DWIDTH 6 0
BBX 4 5 1 1
BITMAP
10
60
80
40
30
ENDCHAR
STARTCHAR equal
ENCODING 61
SWIDTH 598 0
DWIDTH 6 0
BBX 5 3 0 2
BITMAP
F8
00
F8
ENDCHAR
STARTCHAR greater
ENCODING 62
SWIDTH 588 0
DWIDTH 6 0
BBX 4 5 1 1
BITMAP
80
60
10
20
C0
ENDCHAR
STARTCHAR question
ENCODING 63
SWIDTH 470 0
DWIDTH 5 0
BBX 4 8 0 0
BITMAP
F0
D0
30
20
40
00
40
60
ENDCHAR
STARTCHAR at
ENCODING 64
SWIDTH 835 0
DWIDTH 8 0
BBX 7 8 1 -1
BITMAP
38
C4
BA
EA
CA
DC
A8
F8
ENDCHAR
STARTCHAR A
ENCODING 65
SWIDTH 715 0
DWIDTH 7 0
BBX 6 8 1 0
BITMAP
20
20
30
70
90
98
F8
0C
ENDCHAR
STARTCHAR B
ENCODING 66
SWIDTH 751 0
DWIDTH 8 0
BBX 6 8 1 0
BITMAP
F8
CC
CC
C8
FC
CC
CC
F8
ENDCHAR
STARTCHAR C
ENCODING 67
SWIDTH 711 0
DWIDTH 7 0
BBX 6 8 1 0
BITMAP
7C
C4
80
80
80
80
C4
7C
ENDCHAR
STARTCHAR D
ENCODING 68
SWIDTH 798 0
DWIDTH 8 0
BBX 7 8 1 0
BITMAP
F8
C4
C4
C6
C6
C4
C4
F8
ENDCHAR
STARTCHAR E
ENCODING 69
SWIDTH 696 0
DWIDTH 7 0
BBX 6 8 1 0
BITMAP
F8
C0
C0
D0
F0
C4
C4
FC
ENDCHAR
STARTCHAR F
ENCODING 70
SWIDTH 702 0
DWIDTH 7 0
BBX 5 8 1 0
BITMAP
F8
C8
C0
D0
F0
D0
C0
C0
ENDCHAR
STARTCHAR G
ENCODING 71
SWIDTH 790 0
DWIDTH 8 0
BBX 7 8 0 0
BITMAP
3E
62
42
40
C0
46
66
3C
ENDCHAR
STARTCHAR H
ENCODING 72
SWIDTH 826 0
DWIDTH 8 0
BBX 6 8 1 0
BITMAP
C4
C4
C4
C4
FC
C4
C4
C4
ENDCHAR
STARTCHAR I
ENCODING 73
SWIDTH 386 0
DWIDTH 4 0
BBX 2 8 1 0
BITMAP
C0
C0
C0
C0
C0
C0
C0
C0
ENDCHAR
STARTCHAR J
ENCODING 74
SWIDTH 386 0
DWIDTH 4 0
BBX 4 9 -1 -1
BITMAP
30
30
30
30
30
30
30
B0
E0
ENDCHAR
STARTCHAR K
ENCODING 75
SWIDTH 811 0
DWIDTH 8 0
BBX 6 8 1 0
BITMAP
C4
D8
E0
F0
F0
D8
CC
CC
ENDCHAR
STARTCHAR L
ENCODING 76
SWIDTH 681 0
DWIDTH 7 0
BBX 6 8 1 0
BITMAP
C0
C0
C0
C0
C0
C4
C4
FC
ENDCHAR
STARTCHAR M
ENCODING 77
SWIDTH 927 0
DWIDTH 9 0
BBX 7 8 1 0
BITMAP
C6
E6
EE
AE
B6
B6
B6
A6
ENDCHAR
STARTCHAR N
ENCODING 78
SWIDTH 791 0
DWIDTH 8 0
BBX 6 8 1 0
BITMAP
C4
E4
B4
B4
9C
8C
8C
84
ENDCHAR
STARTCHAR O
ENCODING 79
SWIDTH 823 0
DWIDTH 8 0
BBX 8 8 0 0
BITMAP
3C
62
43
C3
C3
43
62
3C
ENDCHAR
STARTCHAR P
ENCODING 80
SWIDTH 700 0
DWIDTH 7 0
BBX 6 8 1 0
BITMAP
F8
CC
CC
C8
F0
C0
C0
C0
ENDCHAR
STARTCHAR Q
ENCODING 81
SWIDTH 823 0
DWIDTH 8 0
BBX 8 10 0 -2
BITMAP
3C
62
43
C3
C3
43
62
24
18
0C
ENDCHAR
STARTCHAR R
ENCODING 82
SWIDTH 740 0
DWIDTH 7 0
BBX 6 8 1 0
BITMAP
F8
CC
CC
D8
F8
C8
C8
CC
ENDCHAR
STARTCHAR S
ENCODING 83
SWIDTH 569 0
DWIDTH 6 0
BBX 5 8 0 0
BITMAP
78
88
C0
78
38
08
88
F8
ENDCHAR
STARTCHAR T
ENCODING 84
SWIDTH 724 0
DWIDTH 7 0
BBX 7 8 0 0
BITMAP
FE
92
90
10
10
10
10
18
ENDCHAR
STARTCHAR U
ENCODING 85
SWIDTH 774 0
DWIDTH 8 0
BBX 6 8 1 0
BITMAP
C4
C4
C4
C4
C4
C4
C4
78
ENDCHAR
STARTCHAR V
ENCODING 86
SWIDTH 667 0
DWIDTH 7 0
BBX 5 8 1 0
BITMAP
80
C8
D0
50
70
60
20
20
ENDCHAR
STARTCHAR W
ENCODING 87
SWIDTH 1019 0
DWIDTH 10 0
BBX 8 8 1 0
BITMAP
FC
DD
C9
4E
6E
76
24
24
ENDCHAR
STARTCHAR X
ENCODING 88
SWIDTH 719 0
DWIDTH 7 0
BBX 5 8 1 0
BITMAP
C8
D0
70
60
30
70
98
08
ENDCHAR
STARTCHAR Y
ENCODING 89
SWIDTH 766 0
DWIDTH 8 0
BBX 6 8 1 0
BITMAP
C4
C8
68
30
30
30
30
30
ENDCHAR
STARTCHAR Z
ENCODING 90
SWIDTH 621 0
DWIDTH 6 0
BBX 6 8 0 0
BITMAP
7C
8C
18
30
30
60
64
FC
ENDCHAR
STARTCHAR bracketleft
ENCODING 91
SWIDTH 319 0
DWIDTH 3 0
BBX 1 9 1 -1
BITMAP
80
80
80
80
80
80
80
80
80
ENDCHAR
STARTCHAR backslash
ENCODING 92
SWIDTH 149 0
DWIDTH 1 0
BBX 3 8 -1 0
BITMAP
80
80
40
40
40
40
20
20
ENDCHAR
STARTCHAR bracketright
ENCODING 93
SWIDTH 319 0
DWIDTH 3 0
BBX 1 9 1 -1
BITMAP
80
80
80
80
80
80
80
80
80
ENDCHAR
STARTCHAR asciicircum
ENCODING 94
SWIDTH 501 0
DWIDTH 5 0
BBX 5 5 0 2
BITMAP
20
60
50
50
88
ENDCHAR
STARTCHAR underscore
ENCODING 95
SWIDTH 584 0
DWIDTH 6 0
BBX 6 1 0 -1
BITMAP
FC
ENDCHAR
STARTCHAR grave
ENCODING 96
SWIDTH 268 0
DWIDTH 3 0
BBX 2 2 0 6
BITMAP
80
40
ENDCHAR
STARTCHAR a
ENCODING 97
SWIDTH 541 0
DWIDTH 5 0
BBX 5 5 0 0
BITMAP
70
58
78
D8
78
ENDCHAR
STARTCHAR b
ENCODING 98
SWIDTH 630 0
DWIDTH 6 0
BBX 5 8 1 0
BITMAP
80
80
80
F0
98
98
98
F0
ENDCHAR
STARTCHAR c
ENCODING 99
SWIDTH 520 0
DWIDTH 5 0
BBX 5 5 0 0
BITMAP
70
58
C0
48
70
ENDCHAR
STARTCHAR d
ENCODING 100
SWIDTH 631 0
DWIDTH 6 0
BBX 5 8 0 0
BITMAP
08
08
08
78
48
C8
48
78
ENDCHAR
STARTCHAR e
ENCODING 101
SWIDTH 537 0
DWIDTH 5 0
BBX 5 5 0 0
BITMAP
70
48
F0
40
78
ENDCHAR
STARTCHAR f
ENCODING 102
SWIDTH 346 0
DWIDTH 3 0
BBX 3 8 1 0
BITMAP
60
A0
80
80
80
80
80
80
ENDCHAR
STARTCHAR g
ENCODING 103
SWIDTH 565 0
DWIDTH 6 0
BBX 6 9 0 -4
BITMAP
7C
58
58
50
A0
78
48
88
70
ENDCHAR
STARTCHAR h
ENCODING 104
SWIDTH 619 0
DWIDTH 6 0
BBX 4 8 1 0
BITMAP
80
80
80
F0
D0
90
90
90
ENDCHAR
STARTCHAR i
ENCODING 105
SWIDTH 319 0
DWIDTH 3 0
BBX 1 8 1 0
BITMAP
80
80
00
80
80
80
80
80
ENDCHAR
STARTCHAR j
ENCODING 106
SWIDTH 318 0
DWIDTH 3 0
BBX 3 12 -1 -4
BITMAP
20
20
00
20
20
20
20
20
20
20
A0
E0
ENDCHAR
STARTCHAR k
ENCODING 107
SWIDTH 618 0
DWIDTH 6 0
BBX 5 8 1 0
BITMAP
80
80
80
90
A0
A0
B0
98
ENDCHAR
STARTCHAR l
ENCODING 108
SWIDTH 329 0
DWIDTH 3 0
BBX 1 8 1 0
BITMAP
80
80
80
80
80
80
80
80
ENDCHAR
STARTCHAR m
ENCODING 109
SWIDTH 910 0
DWIDTH 9 0
BBX 7 5 1 0
BITMAP
FE
DA
92
92
92
ENDCHAR
STARTCHAR n
ENCODING 110
SWIDTH 614 0
DWIDTH 6 0
BBX 4 5 1 0
BITMAP
F0
D0
90
90
90
ENDCHAR
STARTCHAR o
ENCODING 111
SWIDTH 589 0
DWIDTH 6 0
BBX 5 5 0 0
BITMAP
70
48
C8
48
70
ENDCHAR
STARTCHAR p
ENCODING 112
SWIDTH 635 0
DWIDTH 6 0
BBX 5 9 1 -4
BITMAP
F0
98
98
98
D0
A0
80
80
80
ENDCHAR
STARTCHAR q
ENCODING 113
SWIDTH 621 0
DWIDTH 6 0
BBX 5 9 0 -4
BITMAP
78
48
C8
48
58
28
08
08
08
ENDCHAR
STARTCHAR r
ENCODING 114
SWIDTH 506 0
DWIDTH 5 0
BBX 4 5 1 0
BITMAP
B0
F0
80
80
80
ENDCHAR
STARTCHAR s
ENCODING 115
SWIDTH 429 0
DWIDTH 4 0
BBX 4 5 0 0
BITMAP
F0
C0
70
90
F0
ENDCHAR
STARTCHAR t
ENCODING 116
SWIDTH 354 0
DWIDTH 4 0
BBX 2 6 1 0
BITMAP
80
80
80
80
80
C0
ENDCHAR
STARTCHAR u
ENCODING 117
SWIDTH 613 0
DWIDTH 6 0
BBX 4 5 1 0
BITMAP
90
90
90
90
F0
ENDCHAR
STARTCHAR v
ENCODING 118
SWIDTH 491 0
DWIDTH 5 0
BBX 4 5 0 0
BITMAP
C0
50
70
20
20
ENDCHAR
STARTCHAR w
ENCODING 119
SWIDTH 690 0
DWIDTH 7 0
BBX 6 4 0 1
BITMAP
D0
5C
6C
28
ENDCHAR
STARTCHAR x
ENCODING 120
SWIDTH 578 0
DWIDTH 6 0
BBX 4 5 1 0
BITMAP
90
E0
60
A0
30
ENDCHAR
STARTCHAR y
ENCODING 121
SWIDTH 501 0
DWIDTH 5 0
BBX 4 9 0 -4
BITMAP
C0
50
70
20
20
20
40
40
C0
ENDCHAR
STARTCHAR z
ENCODING 122
SWIDTH 476 0
DWIDTH 5 0
BBX 4 5 0 0
BITMAP
70
30
20
60
F0
ENDCHAR
STARTCHAR braceleft
ENCODING 123
SWIDTH 300 0
DWIDTH 3 0
BBX 1 9 1 -1
BITMAP
80
80
80
80
80
80
80
80
80
ENDCHAR
STARTCHAR bar
ENCODING 124
SWIDTH 367 0
DWIDTH 4 0
BBX 1 9 1 -1
BITMAP
80
80
80
80
80
80
80
80
80
ENDCHAR
STARTCHAR braceright
ENCODING 125
SWIDTH 300 0
DWIDTH 3 0
BBX 1 9 1 -1
BITMAP
80
80
80
80
80
80
80
80
80
ENDCHAR
STARTCHAR asciitilde
ENCODING 126
SWIDTH 475 0
DWIDTH 5 0
BBX 4 2 0 2
BITMAP
40
B0
ENDCHAR
STARTCHAR uni00A0
ENCODING 160
SWIDTH 160 0
DWIDTH 2 0
BBX 1 1 0 0
BITMAP
00
ENDCHAR
STARTCHAR exclamdown
ENCODING 161
SWIDTH 307 0
DWIDTH 3 0
BBX 1 9 1 -4
BITMAP
80
80
00
80
80
80
80
80
80
ENDCHAR
STARTCHAR cent
ENCODING 162
SWIDTH 520 0
DWIDTH 5 0
BBX 5 5 0 1
BITMAP
70
58
E0
68
30
ENDCHAR
STARTCHAR sterling
ENCODING 163
SWIDTH 559 0
DWIDTH 6 0
BBX 5 7 0 0
BITMAP
38
68
60
F0
20
20
F8
ENDCHAR
STARTCHAR currency
ENCODING 164
SWIDTH 669 0
DWIDTH 7 0
BBX 5 5 1 1
BITMAP
F8
88
88
90
F8
ENDCHAR
STARTCHAR yen
ENCODING 165
SWIDTH 766 0
DWIDTH 8 0
BBX 6 8 1 0
BITMAP
C4
C8
68
30
F8
30
70
30
ENDCHAR
STARTCHAR brokenbar
ENCODING 166
SWIDTH 367 0
DWIDTH 4 0
BBX 1 9 1 -1
BITMAP
80
80
80
80
00
80
80
80
80
ENDCHAR
STARTCHAR section
ENCODING 167
SWIDTH 499 0
DWIDTH 5 0
BBX 5 9 0 -1
BITMAP
70
50
60
B0
D8
68
30
50
70
ENDCHAR
STARTCHAR dieresis
ENCODING 168
SWIDTH 342 0
DWIDTH 3 0
BBX 3 1 0 6
BITMAP
A0
ENDCHAR
STARTCHAR copyright
ENCODING 169
SWIDTH 833 0
DWIDTH 8 0
BBX 8 8 0 0
BITMAP
3C
42
BD
A1
A1
A5
5A
3C
ENDCHAR
STARTCHAR ordfeminine
ENCODING 170
SWIDTH 336 0
DWIDTH 3 0
BBX 3 3 0 5
BITMAP
E0
E0
E0
ENDCHAR
STARTCHAR guillemotleft
ENCODING 171
SWIDTH 508 0
DWIDTH 5 0
BBX 3 4 1 0
BITMAP
A0
A0
A0
40
ENDCHAR
STARTCHAR logicalnot
ENCODING 172
SWIDTH 538 0
DWIDTH 5 0
BBX 4 2 1 1
BITMAP
F0
10
ENDCHAR
STARTCHAR uni00AD
ENCODING 173
SWIDTH 395 0
DWIDTH 4 0
BBX 3 1 0 2
BITMAP
E0
ENDCHAR
STARTCHAR registered
ENCODING 174
SWIDTH 537 0
DWIDTH 5 0
BBX 5 5 0 3
BITMAP
70
F8
F8
D8
70
ENDCHAR
STARTCHAR macron
ENCODING 175
SWIDTH 360 0
DWIDTH 4 0
BBX 3 1 0 6
BITMAP
E0
ENDCHAR
STARTCHAR degree
ENCODING 176
SWIDTH 363 0
DWIDTH 4 0
BBX 3 3 0 5
BITMAP
60
A0
60
ENDCHAR
STARTCHAR plusminus
ENCODING 177
SWIDTH 578 0
DWIDTH 6 0
BBX 5 7 0 0
BITMAP
20
20
F8
20
20
00
F8
ENDCHAR
STARTCHAR uni00B2
ENCODING 178
SWIDTH 360 0
DWIDTH 4 0
BBX 3 3 0 5
BITMAP
E0
40
E0
ENDCHAR
STARTCHAR uni00B3
ENCODING 179
SWIDTH 346 0
DWIDTH 3 0
BBX 3 4 0 5
BITMAP
E0
20
20
E0
ENDCHAR
STARTCHAR acute
ENCODING 180
SWIDTH 268 0
DWIDTH 3 0
BBX 2 2 1 6
BITMAP
C0
80
ENDCHAR
STARTCHAR uni00B5
ENCODING 181
SWIDTH 613 0
DWIDTH 6 0
BBX 5 8 0 -3
BITMAP
48
48
48
48
78
80
40
40
ENDCHAR
STARTCHAR paragraph
ENCODING 182
SWIDTH 633 0
DWIDTH 6 0
BBX 6 9 0 -1
BITMAP
7C
E8
E8
68
28
28
28
28
28
ENDCHAR
STARTCHAR periodcentered
ENCODING 183
SWIDTH 274 0
DWIDTH 3 0
BBX 1 2 1 2
BITMAP
80
80
ENDCHAR
STARTCHAR cedilla
ENCODING 184
SWIDTH 250 0
DWIDTH 3 0
BBX 1 1 1 -2
BITMAP
80
ENDCHAR
STARTCHAR uni00B9
ENCODING 185
SWIDTH 279 0
DWIDTH 3 0
BBX 1 3 1 5
BITMAP
80
80
80
ENDCHAR
STARTCHAR ordmasculine
ENCODING 186
SWIDTH 338 0
DWIDTH 3 0
BBX 3 3 0 5
BITMAP
E0
A0
E0
ENDCHAR
STARTCHAR guillemotright
ENCODING 187
SWIDTH 508 0
DWIDTH 5 0
BBX 3 3 1 1
BITMAP
C0
E0
A0
ENDCHAR
STARTCHAR onequarter
ENCODING 188
SWIDTH 913 0
DWIDTH 9 0
BBX 5 8 2 0
BITMAP
88
90
90
A0
28
48
78
98
ENDCHAR
STARTCHAR onehalf
ENCODING 189
SWIDTH 913 0
DWIDTH 9 0
BBX 6 8 2 0
BITMAP
88
90
90
A0
3C
5C
48
9C
ENDCHAR
STARTCHAR threequarters
ENCODING 190
SWIDTH 913 0
DWIDTH 9 0
BBX 7 8 1 0
BITMAP
E4
48
28
B0
54
24
3C
4E
ENDCHAR
STARTCHAR questiondown
ENCODING 191
SWIDTH 470 0
DWIDTH 5 0
BBX 4 9 0 -4
BITMAP
30
30
00
00
20
60
C0
90
70
ENDCHAR
STARTCHAR Agrave
ENCODING 192
SWIDTH 715 0
DWIDTH 7 0
BBX 6 10 1 0
BITMAP
60
00
20
20
30
70
90
98
F8
0C
ENDCHAR
STARTCHAR Aacute
ENCODING 193
SWIDTH 715 0
DWIDTH 7 0
BBX 6 10 1 0
BITMAP
10
20
20
20
30
70
90
98
F8
0C
ENDCHAR
STARTCHAR Acircumflex
ENCODING 194
SWIDTH 715 0
DWIDTH 7 0
BBX 6 10 1 0
BITMAP
30
00
20
20
30
70
90
98
F8
0C
ENDCHAR
STARTCHAR Atilde
ENCODING 195
SWIDTH 715 0
DWIDTH 7 0
BBX 6 10 1 0
BITMAP
70
00
20
20
30
70
90
98
F8
0C
ENDCHAR
STARTCHAR Adieresis
ENCODING 196
SWIDTH 715 0
DWIDTH 7 0
BBX 6 10 1 0
BITMAP
70
00
20
20
30
70
90
98
F8
0C
ENDCHAR
STARTCHAR Aring
ENCODING 197
SWIDTH 715 0
DWIDTH 7 0
BBX 6 10 1 0
BITMAP
70
20
20
20
30
70
90
98
F8
0C
ENDCHAR
STARTCHAR AE
ENCODING 198
SWIDTH 1131 0
DWIDTH 11 0
BBX 10 8 1 0
BITMAP
0FC0
1C40
2C00
2D00
4F00
BC00
8C40
8FC0
ENDCHAR
STARTCHAR Ccedilla
ENCODING 199
SWIDTH 711 0
DWIDTH 7 0
BBX 6 10 1 -2
BITMAP
7C
C4
80
80
80
80
C4
4C
30
10
ENDCHAR
STARTCHAR Egrave
ENCODING 200
SWIDTH 696 0
DWIDTH 7 0
BBX 6 10 1 0
BITMAP
60
00
F8
C0
C0
D0
F0
C4
C4
FC
ENDCHAR
STARTCHAR Eacute
ENCODING 201
SWIDTH 696 0
DWIDTH 7 0
BBX 6 10 1 0
BITMAP
30
00
F8
C0
C0
D0
F0
C4
C4
FC
ENDCHAR
STARTCHAR Ecircumflex
ENCODING 202
SWIDTH 696 0
DWIDTH 7 0
BBX 6 10 1 0
BITMAP
20
50
F8
C0
C0
D0
F0
C4
C4
FC
ENDCHAR
STARTCHAR Edieresis
ENCODING 203
SWIDTH 696 0
DWIDTH 7 0
BBX 6 10 1 0
BITMAP
50
00
F8
C0
C0
D0
F0
C4
C4
FC
ENDCHAR
STARTCHAR Igrave
ENCODING 204
SWIDTH 386 0
DWIDTH 4 0
BBX 2 10 1 0
BITMAP
80
40
C0
C0
C0
C0
C0
C0
C0
C0
ENDCHAR
STARTCHAR Iacute
ENCODING 205
SWIDTH 386 0
DWIDTH 4 0
BBX 2 10 1 0
BITMAP
40
80
C0
C0
C0
C0
C0
C0
C0
C0
ENDCHAR
STARTCHAR Icircumflex
ENCODING 206
SWIDTH 386 0
DWIDTH 4 0
BBX 2 10 1 0
BITMAP
C0
00
C0
C0
C0
C0
C0
C0
C0
C0
ENDCHAR
STARTCHAR Idieresis
ENCODING 207
SWIDTH 386 0
DWIDTH 4 0
BBX 4 10 0 0
BITMAP
F0
00
60
60
60
60
60
60
60
60
ENDCHAR
STARTCHAR Eth
ENCODING 208
SWIDTH 798 0
DWIDTH 8 0
BBX 7 8 1 0
BITMAP
F8
C4
C4
C6
C6
C4
C4
F8
ENDCHAR
STARTCHAR Ntilde
ENCODING 209
SWIDTH 791 0
DWIDTH 8 0
BBX 6 10 1 0
BITMAP
70
00
C4
E4
B4
B4
9C
8C
8C
84
ENDCHAR
STARTCHAR Ograve
ENCODING 210
SWIDTH 823 0
DWIDTH 8 0
BBX 8 10 0 0
BITMAP
18
00
3C
62
43
C3
C3
43
62
3C
ENDCHAR
STARTCHAR Oacute
ENCODING 211
SWIDTH 823 0
DWIDTH 8 0
BBX 8 10 0 0
BITMAP
0C
10
3C
62
43
C3
C3
43
62
3C
ENDCHAR
STARTCHAR Ocircumflex
ENCODING 212
SWIDTH 823 0
DWIDTH 8 0
BBX 8 10 0 0
BITMAP
18
00
3C
62
43
C3
C3
43
62
3C
ENDCHAR
STARTCHAR Otilde
ENCODING 213
SWIDTH 823 0
DWIDTH 8 0
BBX 8 10 0 0
BITMAP
1C
00
3C
62
43
C3
C3
43
62
3C
ENDCHAR
STARTCHAR Odieresis
ENCODING 214
SWIDTH 823 0
DWIDTH 8 0
BBX 8 10 0 0
BITMAP
1C
00
3C
62
43
C3
C3
43
62
3C
ENDCHAR
STARTCHAR multiply
ENCODING 215
SWIDTH 578 0
DWIDTH 6 0
BBX 4 4 1 1
BITMAP
90
60
60
90
ENDCHAR
STARTCHAR Oslash
ENCODING 216
SWIDTH 823 0
DWIDTH 8 0
BBX 8 8 0 0
BITMAP
3E
66
4B
CB
D3
63
62
3C
ENDCHAR
STARTCHAR Ugrave
ENCODING 217
SWIDTH 774 0
DWIDTH 8 0
BBX 6 10 1 0
BITMAP
60
00
C4
C4
C4
C4
C4
C4
C4
78
ENDCHAR
STARTCHAR Uacute
ENCODING 218
SWIDTH 774 0
DWIDTH 8 0
BBX 6 10 1 0
BITMAP
10
20
C4
C4
C4
C4
C4
C4
C4
78
ENDCHAR
STARTCHAR Ucircumflex
ENCODING 219
SWIDTH 774 0
DWIDTH 8 0
BBX 6 10 1 0
BITMAP
30
00
C4
C4
C4
C4
C4
C4
C4
78
ENDCHAR
STARTCHAR Udieresis
ENCODING 220
SWIDTH 774 0
DWIDTH 8 0
BBX 6 10 1 0
BITMAP
28
00
C4
C4
C4
C4
C4
C4
C4
78
ENDCHAR
STARTCHAR Yacute
ENCODING 221
SWIDTH 766 0
DWIDTH 8 0
BBX 6 10 1 0
BITMAP
10
20
C4
C8
68
30
30
30
30
30
ENDCHAR
STARTCHAR Thorn
ENCODING 222
SWIDTH 700 0
DWIDTH 7 0
BBX 6 8 1 0
BITMAP
C0
C0
F8
CC
CC
D8
E0
C0
ENDCHAR
STARTCHAR germandbls
ENCODING 223
SWIDTH 669 0
DWIDTH 7 0
BBX 5 8 1 0
BITMAP
70
D8
D0
D0
C8
C8
E8
F0
ENDCHAR
STARTCHAR agrave
ENCODING 224
SWIDTH 541 0
DWIDTH 5 0
BBX 5 7 0 0
BITMAP
60
00
70
58
78
D8
78
ENDCHAR
STARTCHAR aacute
ENCODING 225
SWIDTH 541 0
DWIDTH 5 0
BBX 5 7 0 0
BITMAP
10
20
70
58
78
D8
78
ENDCHAR
STARTCHAR acircumflex
ENCODING 226
SWIDTH 541 0
DWIDTH 5 0
BBX 5 7 0 0
BITMAP
30
00
70
58
78
D8
78
ENDCHAR
STARTCHAR atilde
ENCODING 227
SWIDTH 541 0
DWIDTH 5 0
BBX 5 7 0 0
BITMAP
70
00
70
58
78
D8
78
ENDCHAR
STARTCHAR adieresis
ENCODING 228
SWIDTH 541 0
DWIDTH 5 0
BBX 5 8 0 0
BITMAP
50
00
00
70
58
78
D8
78
ENDCHAR
STARTCHAR aring
ENCODING 229
SWIDTH 541 0
DWIDTH 5 0
BBX 5 8 0 0
BITMAP
30
30
00
70
58
78
D8
78
ENDCHAR
STARTCHAR ae
ENCODING 230
SWIDTH 796 0
DWIDTH 8 0
BBX 8 5 0 0
BITMAP
7E
5A
7C
D9
6E
ENDCHAR
STARTCHAR ccedilla
ENCODING 231
SWIDTH 520 0
DWIDTH 5 0
BBX 5 7 0 -2
BITMAP
70
58
C0
48
50
20
10
ENDCHAR
STARTCHAR egrave
ENCODING 232
SWIDTH 537 0
DWIDTH 5 0
BBX 5 7 0 0
BITMAP
60
00
70
48
F0
40
78
ENDCHAR
STARTCHAR eacute
ENCODING 233
SWIDTH 537 0
DWIDTH 5 0
BBX 5 7 0 0
BITMAP
10
20
70
48
F0
40
78
ENDCHAR
STARTCHAR ecircumflex
ENCODING 234
SWIDTH 537 0
DWIDTH 5 0
BBX 5 7 0 0
BITMAP
30
00
70
48
F0
40
78
ENDCHAR
STARTCHAR edieresis
ENCODING 235
SWIDTH 537 0
DWIDTH 5 0
BBX 5 8 0 0
BITMAP
50
00
00
70
48
F0
40
78
ENDCHAR
STARTCHAR igrave
ENCODING 236
SWIDTH 319 0
DWIDTH 3 0
BBX 2 7 0 0
BITMAP
C0
00
40
40
40
40
40
ENDCHAR
STARTCHAR iacute
ENCODING 237
SWIDTH 319 0
DWIDTH 3 0
BBX 2 7 1 0
BITMAP
C0
00
80
80
80
80
80
ENDCHAR
STARTCHAR icircumflex
ENCODING 238
SWIDTH 319 0
DWIDTH 3 0
BBX 2 7 1 0
BITMAP
C0
00
80
80
80
80
80
ENDCHAR
STARTCHAR idieresis
ENCODING 239
SWIDTH 319 0
DWIDTH 3 0
BBX 3 8 0 0
BITMAP
A0
00
00
40
40
40
40
40
ENDCHAR
STARTCHAR eth
ENCODING 240
SWIDTH 692 0
DWIDTH 7 0
BBX 5 7 1 0
BITMAP
38
10
18
F8
88
98
70
ENDCHAR
STARTCHAR ntilde
ENCODING 241
SWIDTH 614 0
DWIDTH 6 0
BBX 4 7 1 0
BITMAP
F0
00
F0
D0
90
90
90
ENDCHAR
STARTCHAR ograve
ENCODING 242
SWIDTH 589 0
DWIDTH 6 0
BBX 5 7 0 0
BITMAP
20
00
70
48
C8
48
70
ENDCHAR
STARTCHAR oacute
ENCODING 243
SWIDTH 589 0
DWIDTH 6 0
BBX 5 7 0 0
BITMAP
10
20
70
48
C8
48
70
ENDCHAR
STARTCHAR ocircumflex
ENCODING 244
SWIDTH 589 0
DWIDTH 6 0
BBX 5 7 0 0
BITMAP
30
00
70
48
C8
48
70
ENDCHAR
STARTCHAR otilde
ENCODING 245
SWIDTH 589 0
DWIDTH 6 0
BBX 5 7 0 0
BITMAP
78
00
70
48
C8
48
70
ENDCHAR
STARTCHAR odieresis
ENCODING 246
SWIDTH 589 0
DWIDTH 6 0
BBX 5 8 0 0
BITMAP
78
00
00
70
48
C8
48
70
ENDCHAR
STARTCHAR divide
ENCODING 247
SWIDTH 578 0
DWIDTH 6 0
BBX 5 5 0 1
BITMAP
30
00
F8
00
30
ENDCHAR
STARTCHAR oslash
ENCODING 248
SWIDTH 589 0
DWIDTH 6 0
BBX 5 5 0 0
BITMAP
78
58
E8
68
70
ENDCHAR
STARTCHAR ugrave
ENCODING 249
SWIDTH 613 0
DWIDTH 6 0
BBX 4 7 1 0
BITMAP
60
00
90
90
90
90
F0
ENDCHAR
STARTCHAR uacute
ENCODING 250
SWIDTH 613 0
DWIDTH 6 0
BBX 4 7 1 0
BITMAP
30
40
90
90
90
90
F0
ENDCHAR
STARTCHAR ucircumflex
ENCODING 251
SWIDTH 613 0
DWIDTH 6 0
BBX 4 7 1 0
BITMAP
60
00
90
90
90
90
F0
ENDCHAR
STARTCHAR udieresis
ENCODING 252
SWIDTH 613 0
DWIDTH 6 0
BBX 4 8 1 0
BITMAP
70
00
00
90
90
90
90
F0
ENDCHAR
STARTCHAR yacute
ENCODING 253
SWIDTH 501 0
DWIDTH 5 0
BBX 4 11 0 -4
BITMAP
30
00
C0
50
70
20
20
20
40
40
C0
ENDCHAR
STARTCHAR thorn
ENCODING 254
SWIDTH 630 0
DWIDTH 6 0
BBX 5 12 1 -4
BITMAP
80
80
80
F0
98
98
98
D0
A0
80
80
80
ENDCHAR
STARTCHAR ydieresis
ENCODING 255
SWIDTH 501 0
DWIDTH 5 0
BBX 4 12 0 -4
BITMAP
50
00
00
C0
50
70
20
20
20
40
40
C0
ENDCHAR
STARTCHAR Amacron
ENCODING 256
SWIDTH 715 0
DWIDTH 7 0
BBX 6 10 1 0
BITMAP
78
00
20
20
30
70
90
98
F8
0C
ENDCHAR
STARTCHAR amacron
ENCODING 257
SWIDTH 541 0
DWIDTH 5 0
BBX 5 8 0 0
BITMAP
70
00
00
70
58
78
D8
78
ENDCHAR
STARTCHAR Abreve
ENCODING 258
SWIDTH 715 0
DWIDTH 7 0
BBX 6 10 1 0
BITMAP
30
00
20
20
30
70
90
98
F8
0C
ENDCHAR
STARTCHAR abreve
ENCODING 259
SWIDTH 541 0
DWIDTH 5 0
BBX 5 7 0 0
BITMAP
30
00
70
58
78
D8
78
ENDCHAR
STARTCHAR Aogonek
ENCODING 260
SWIDTH 715 0
DWIDTH 7 0
BBX 6 10 1 -2
BITMAP
20
20
30
70
90
98
F8
0C
10
10
ENDCHAR
STARTCHAR aogonek
ENCODING 261
SWIDTH 541 0
DWIDTH 5 0
BBX 5 7 0 -2
BITMAP
70
58
78
D8
78
10
18
ENDCHAR
STARTCHAR Cacute
ENCODING 262
SWIDTH 711 0
DWIDTH 7 0
BBX 6 10 1 0
BITMAP
18
20
7C
C4
80
80
80
80
C4
7C
ENDCHAR
STARTCHAR cacute
ENCODING 263
SWIDTH 520 0
DWIDTH 5 0
BBX 5 7 0 0
BITMAP
10
20
70
58
C0
48
70
ENDCHAR
STARTCHAR Ccircumflex
ENCODING 264
SWIDTH 711 0
DWIDTH 7 0
BBX 6 10 1 0
BITMAP
30
00
7C
C4
80
80
80
80
C4
7C
ENDCHAR
STARTCHAR ccircumflex
ENCODING 265
SWIDTH 520 0
DWIDTH 5 0
BBX 5 7 0 0
BITMAP
30
00
70
58
C0
48
70
ENDCHAR
STARTCHAR Cdotaccent
ENCODING 266
SWIDTH 711 0
DWIDTH 7 0
BBX 6 10 1 0
BITMAP
30
00
7C
C4
80
80
80
80
C4
7C
ENDCHAR
STARTCHAR cdotaccent
ENCODING 267
SWIDTH 520 0
DWIDTH 5 0
BBX 5 8 0 0
BITMAP
20
20
00
70
58
C0
48
70
ENDCHAR
STARTCHAR Ccaron
ENCODING 268
SWIDTH 711 0
DWIDTH 7 0
BBX 6 10 1 0
BITMAP
30
00
7C
C4
80
80
80
80
C4
7C
ENDCHAR
STARTCHAR ccaron
ENCODING 269
SWIDTH 520 0
DWIDTH 5 0
BBX 5 8 0 0
BITMAP
50
20
00
70
58
C0
48
70
ENDCHAR
STARTCHAR Dcaron
ENCODING 270
SWIDTH 798 0
DWIDTH 8 0
BBX 7 10 1 0
BITMAP
30
00
F8
C4
C4
C6
C6
C4
C4
F8
ENDCHAR
STARTCHAR dcaron
ENCODING 271
SWIDTH 728 0
DWIDTH 7 0
BBX 5 8 0 0
BITMAP
C8
48
08
78
48
C8
48
78
ENDCHAR
STARTCHAR Dcroat
ENCODING 272
SWIDTH 798 0
DWIDTH 8 0
BBX 7 8 1 0
BITMAP
F8
C4
C4
C6
C6
C4
C4
F8
ENDCHAR
STARTCHAR dcroat
ENCODING 273
SWIDTH 631 0
DWIDTH 6 0
BBX 5 8 0 0
BITMAP
08
08
08
78
48
C8
48
78
ENDCHAR
STARTCHAR Emacron
ENCODING 274
SWIDTH 696 0
DWIDTH 7 0
BBX 6 10 1 0
BITMAP
70
00
F8
C0
C0
D0
F0
C4
C4
FC
ENDCHAR
STARTCHAR emacron
ENCODING 275
SWIDTH 537 0
DWIDTH 5 0
BBX 5 8 0 0
BITMAP
70
00
00
70
48
F0
40
78
ENDCHAR
STARTCHAR Ebreve
ENCODING 276
SWIDTH 696 0
DWIDTH 7 0
BBX 6 10 1 0
BITMAP
70
00
F8
C0
C0
D0
F0
C4
C4
FC
ENDCHAR
STARTCHAR ebreve
ENCODING 277
SWIDTH 537 0
DWIDTH 5 0
BBX 5 7 0 0
BITMAP
70
00
70
48
F0
40
78
ENDCHAR
STARTCHAR Edotaccent
ENCODING 278
SWIDTH 696 0
DWIDTH 7 0
BBX 6 10 1 0
BITMAP
20
00
F8
C0
C0
D0
F0
C4
C4
FC
ENDCHAR
STARTCHAR edotaccent
ENCODING 279
SWIDTH 537 0
DWIDTH 5 0
BBX 5 8 0 0
BITMAP
20
20
00
70
48
F0
40
78
ENDCHAR
STARTCHAR Eogonek
ENCODING 280
SWIDTH 696 0
DWIDTH 7 0
BBX 6 11 1 -3
BITMAP
F8
C0
C0
D0
F0
C4
C4
CC
30
10
10
ENDCHAR
STARTCHAR eogonek
ENCODING 281
SWIDTH 537 0
DWIDTH 5 0
BBX 5 7 0 -2
BITMAP
70
48
F0
40
58
A0
80
ENDCHAR
STARTCHAR Ecaron
ENCODING 282
SWIDTH 696 0
DWIDTH 7 0
BBX 6 10 1 0
BITMAP
70
00
F8
C0
C0
D0
F0
C4
C4
FC
ENDCHAR
STARTCHAR ecaron
ENCODING 283
SWIDTH 537 0
DWIDTH 5 0
BBX 5 8 0 0
BITMAP
50
20
00
70
48
F0
40
78
ENDCHAR
STARTCHAR Gcircumflex
ENCODING 284
SWIDTH 790 0
DWIDTH 8 0
BBX 7 10 0 0
BITMAP
18
00
3E
62
42
40
C0
46
66
3C
ENDCHAR
STARTCHAR gcircumflex
ENCODING 285
SWIDTH 565 0
DWIDTH 6 0
BBX 6 11 0 -4
BITMAP
30
00
7C
58
58
50
A0
78
48
88
70
ENDCHAR
STARTCHAR Gbreve
ENCODING 286
SWIDTH 790 0
DWIDTH 8 0
BBX 7 10 0 0
BITMAP
18
00
3E
62
42
40
C0
46
66
3C
ENDCHAR
STARTCHAR gbreve
ENCODING 287
SWIDTH 565 0
DWIDTH 6 0
BBX 6 11 0 -4
BITMAP
30
00
7C
58
58
50
A0
78
48
88
70
ENDCHAR
STARTCHAR Gdotaccent
ENCODING 288
SWIDTH 790 0
DWIDTH 8 0
BBX 7 10 0 0
BITMAP
18
00
3E
62
42
40
C0
46
66
3C
ENDCHAR
STARTCHAR gdotaccent
ENCODING 289
SWIDTH 565 0
DWIDTH 6 0
BBX 6 12 0 -4
BITMAP
20
30
00
7C
58
58
50
A0
78
48
88
70
ENDCHAR
STARTCHAR Gcommaaccent
ENCODING 290
SWIDTH 790 0
DWIDTH 8 0
BBX 7 12 0 -4
BITMAP
3E
62
42
40
C0
46
66
24
18
18
08
10
ENDCHAR
STARTCHAR gcommaaccent
ENCODING 291
SWIDTH 565 0
DWIDTH 6 0
BBX 6 12 0 -4
BITMAP
20
30
00
7C
58
58
50
A0
78
48
88
70
ENDCHAR
STARTCHAR Hcircumflex
ENCODING 292
SWIDTH 826 0
DWIDTH 8 0
BBX 6 10 1 0
BITMAP
30
00
C4
C4
C4
C4
FC
C4
C4
C4
ENDCHAR
STARTCHAR hcircumflex
ENCODING 293
SWIDTH 619 0
DWIDTH 6 0
BBX 4 8 1 0
BITMAP
80
B0
80
F0
D0
90
90
90
ENDCHAR
STARTCHAR Hbar
ENCODING 294
SWIDTH 826 0
DWIDTH 8 0
BBX 6 8 1 0
BITMAP
C4
C4
FC
C4
FC
C4
C4
C4
ENDCHAR
STARTCHAR hbar
ENCODING 295
SWIDTH 619 0
DWIDTH 6 0
BBX 4 8 1 0
BITMAP
80
80
C0
F0
D0
90
90
90
ENDCHAR
STARTCHAR Itilde
ENCODING 296
SWIDTH 386 0
DWIDTH 4 0
BBX 3 10 0 0
BITMAP
E0
00
60
60
60
60
60
60
60
60
ENDCHAR
STARTCHAR itilde
ENCODING 297
SWIDTH 319 0
DWIDTH 3 0
BBX 3 7 0 0
BITMAP
E0
00
40
40
40
40
40
ENDCHAR
STARTCHAR Imacron
ENCODING 298
SWIDTH 386 0
DWIDTH 4 0
BBX 4 10 0 0
BITMAP
F0
00
60
60
60
60
60
60
60
60
ENDCHAR
STARTCHAR imacron
ENCODING 299
SWIDTH 319 0
DWIDTH 3 0
BBX 3 8 0 0
BITMAP
E0
00
00
40
40
40
40
40
ENDCHAR
STARTCHAR Ibreve
ENCODING 300
SWIDTH 386 0
DWIDTH 4 0
BBX 2 10 1 0
BITMAP
C0
00
C0
C0
C0
C0
C0
C0
C0
C0
ENDCHAR
STARTCHAR ibreve
ENCODING 301
SWIDTH 319 0
DWIDTH 3 0
BBX 3 7 0 0
BITMAP
E0
00
40
40
40
40
40
ENDCHAR
STARTCHAR Iogonek
ENCODING 302
SWIDTH 386 0
DWIDTH 4 0
BBX 3 11 0 -3
BITMAP
60
60
60
60
60
60
60
60
40
80
40
ENDCHAR
STARTCHAR iogonek
ENCODING 303
SWIDTH 319 0
DWIDTH 3 0
BBX 2 10 0 -2
BITMAP
40
40
00
40
40
40
40
40
80
80
ENDCHAR
STARTCHAR Idotaccent
ENCODING 304
SWIDTH 386 0
DWIDTH 4 0
BBX 2 10 1 0
BITMAP
C0
00
C0
C0
C0
C0
C0
C0
C0
C0
ENDCHAR
STARTCHAR dotlessi
ENCODING 305
SWIDTH 319 0
DWIDTH 3 0
BBX 1 5 1 0
BITMAP
80
80
80
80
80
ENDCHAR
STARTCHAR IJ
ENCODING 306
SWIDTH 772 0
DWIDTH 8 0
BBX 6 9 1 -1
BITMAP
CC
CC
CC
CC
CC
CC
CC
E8
38
ENDCHAR
STARTCHAR ij
ENCODING 307
SWIDTH 637 0
DWIDTH 6 0
BBX 5 12 1 -4
BITMAP
90
98
00
98
98
98
98
98
18
10
70
30
ENDCHAR
STARTCHAR Jcircumflex
ENCODING 308
SWIDTH 386 0
DWIDTH 4 0
BBX 4 11 -1 -1
BITMAP
30
00
30
30
30
30
30
30
30
B0
E0
ENDCHAR
STARTCHAR jcircumflex
ENCODING 309
SWIDTH 318 0
DWIDTH 3 0
BBX 4 11 -1 -4
BITMAP
20
10
20
20
20
20
20
20
20
A0
E0
ENDCHAR
STARTCHAR Kcommaaccent
ENCODING 310
SWIDTH 811 0
DWIDTH 8 0
BBX 6 12 1 -4
BITMAP
C4
D8
E0
F0
F0
D8
CC
CC
00
30
10
20
ENDCHAR
STARTCHAR kcommaaccent
ENCODING 311
SWIDTH 618 0
DWIDTH 6 0
BBX 5 12 1 -4
BITMAP
80
80
80
90
A0
A0
B0
98
00
60
20
40
ENDCHAR
STARTCHAR kgreenlandic
ENCODING 312
SWIDTH 618 0
DWIDTH 6 0
BBX 5 5 1 0
BITMAP
90
A0
A0
B0
98
ENDCHAR
STARTCHAR Lacute
ENCODING 313
SWIDTH 681 0
DWIDTH 7 0
BBX 6 10 1 0
BITMAP
40
80
C0
C0
C0
C0
C0
C4
C4
FC
ENDCHAR
STARTCHAR lacute
ENCODING 314
SWIDTH 329 0
DWIDTH 3 0
BBX 2 10 1 0
BITMAP
C0
00
80
80
80
80
80
80
80
80
ENDCHAR
STARTCHAR Lcommaaccent
ENCODING 315
SWIDTH 681 0
DWIDTH 7 0
BBX 6 12 1 -4
BITMAP
C0
C0
C0
C0
C0
C4
C4
CC
30
20
20
20
ENDCHAR
STARTCHAR lcommaaccent
ENCODING 316
SWIDTH 329 0
DWIDTH 3 0
BBX 1 12 1 -4
BITMAP
80
80
80
80
80
80
80
80
00
80
80
80
ENDCHAR
STARTCHAR Lcaron
ENCODING 317
SWIDTH 681 0
DWIDTH 7 0
BBX 7 10 0 0
BITMAP
E0
00
60
60
60
60
60
62
62
7E
ENDCHAR
STARTCHAR lcaron
ENCODING 318
SWIDTH 388 0
DWIDTH 4 0
BBX 4 8 1 0
BITMAP
A0
B0
80
80
80
80
80
80
ENDCHAR
STARTCHAR Ldot
ENCODING 319
SWIDTH 955 0
DWIDTH 10 0
BBX 6 8 1 0
BITMAP
C0
C0
C0
D0
D0
C4
C4
FC
ENDCHAR
STARTCHAR ldot
ENCODING 320
SWIDTH 410 0
DWIDTH 4 0
BBX 4 8 1 0
BITMAP
80
80
80
80
B0
A0
80
80
ENDCHAR
STARTCHAR Lslash
ENCODING 321
SWIDTH 681 0
DWIDTH 7 0
BBX 6 8 1 0
BITMAP
C0
C0
C0
C0
C0
C4
C4
FC
ENDCHAR
STARTCHAR lslash
ENCODING 322
SWIDTH 329 0
DWIDTH 3 0
BBX 3 8 0 0
BITMAP
40
40
40
60
C0
40
40
40
ENDCHAR
STARTCHAR Nacute
ENCODING 323
SWIDTH 791 0
DWIDTH 8 0
BBX 6 10 1 0
BITMAP
10
20
C4
E4
B4
B4
9C
8C
8C
84
ENDCHAR
STARTCHAR nacute
ENCODING 324
SWIDTH 614 0
DWIDTH 6 0
BBX 4 7 1 0
BITMAP
30
40
F0
D0
90
90
90
ENDCHAR
STARTCHAR Ncommaaccent
ENCODING 325
SWIDTH 791 0
DWIDTH 8 0
BBX 6 12 1 -4
BITMAP
C4
E4
B4
B4
9C
8C
8C
84
00
30
10
20
ENDCHAR
STARTCHAR ncommaaccent
ENCODING 326
SWIDTH 614 0
DWIDTH 6 0
BBX 4 9 1 -4
BITMAP
F0
D0
90
90
90
00
60
20
40
ENDCHAR
STARTCHAR Ncaron
ENCODING 327
SWIDTH 791 0
DWIDTH 8 0
BBX 6 10 1 0
BITMAP
30
00
C4
E4
B4
B4
9C
8C
8C
84
ENDCHAR
STARTCHAR ncaron
ENCODING 328
SWIDTH 614 0
DWIDTH 6 0
BBX 4 8 1 0
BITMAP
10
60
00
F0
D0
90
90
90
ENDCHAR
STARTCHAR napostrophe
ENCODING 329
SWIDTH 614 0
DWIDTH 6 0
BBX 5 9 0 0
BITMAP
C0
C0
40
00
78
68
48
48
48
ENDCHAR
STARTCHAR Eng
ENCODING 330
SWIDTH 791 0
DWIDTH 8 0
BBX 6 9 1 -1
BITMAP
E4
E4
B4
BC
9C
8C
84
84
1C
ENDCHAR
STARTCHAR eng
ENCODING 331
SWIDTH 614 0
DWIDTH 6 0
BBX 4 9 1 -4
BITMAP
F0
D0
90
90
90
10
10
50
70
ENDCHAR
STARTCHAR Omacron
ENCODING 332
SWIDTH 823 0
DWIDTH 8 0
BBX 8 10 0 0
BITMAP
3C
00
3C
62
43
C3
C3
43
62
3C
ENDCHAR
STARTCHAR omacron
ENCODING 333
SWIDTH 589 0
DWIDTH 6 0
BBX 5 8 0 0
BITMAP
78
00
00
70
48
C8
48
70
ENDCHAR
STARTCHAR Obreve
ENCODING 334
SWIDTH 823 0
DWIDTH 8 0
BBX 8 10 0 0
BITMAP
18
00
3C
62
43
C3
C3
43
62
3C
ENDCHAR
STARTCHAR obreve
ENCODING 335
SWIDTH 589 0
DWIDTH 6 0
BBX 5 7 0 0
BITMAP
30
00
70
48
C8
48
70
ENDCHAR
STARTCHAR Ohungarumlaut
ENCODING 336
SWIDTH 823 0
DWIDTH 8 0
BBX 8 10 0 0
BITMAP
0A
14
3C
62
43
C3
C3
43
62
3C
ENDCHAR
STARTCHAR ohungarumlaut
ENCODING 337
SWIDTH 589 0
DWIDTH 6 0
BBX 6 8 0 0
BITMAP
14
28
00
70
48
C8
48
70
ENDCHAR
STARTCHAR OE
ENCODING 338
SWIDTH 1179 0
DWIDTH 12 0
BBX 11 8 0 0
BITMAP
3FE0
6300
4340
C340
C3C0
4340
6320
3FE0
ENDCHAR
STARTCHAR oe
ENCODING 339
SWIDTH 881 0
DWIDTH 9 0
BBX 8 5 0 0
BITMAP
77
49
CE
48
77
ENDCHAR
STARTCHAR Racute
ENCODING 340
SWIDTH 740 0
DWIDTH 7 0
BBX 6 10 1 0
BITMAP
30
00
F8
CC
CC
D8
F8
C8
C8
CC
ENDCHAR
STARTCHAR racute
ENCODING 341
SWIDTH 506 0
DWIDTH 5 0
BBX 4 7 1 0
BITMAP
60
00
B0
F0
80
80
80
ENDCHAR
STARTCHAR Rcommaaccent
ENCODING 342
SWIDTH 740 0
DWIDTH 7 0
BBX 6 12 1 -4
BITMAP
F8
CC
CC
D8
F8
C8
C8
CC
00
20
20
20
ENDCHAR
STARTCHAR rcommaaccent
ENCODING 343
SWIDTH 506 0
DWIDTH 5 0
BBX 4 9 1 -4
BITMAP
B0
F0
80
80
80
00
40
40
40
ENDCHAR
STARTCHAR Rcaron
ENCODING 344
SWIDTH 740 0
DWIDTH 7 0
BBX 6 10 1 0
BITMAP
70
00
F8
CC
CC
D8
F8
C8
C8
CC
ENDCHAR
STARTCHAR rcaron
ENCODING 345
SWIDTH 506 0
DWIDTH 5 0
BBX 4 8 1 0
BITMAP
A0
40
00
B0
F0
80
80
80
ENDCHAR
STARTCHAR Sacute
ENCODING 346
SWIDTH 569 0
DWIDTH 6 0
BBX 5 10 0 0
BITMAP
10
20
78
88
C0
78
38
08
88
F8
ENDCHAR
STARTCHAR sacute
ENCODING 347
SWIDTH 429 0
DWIDTH 4 0
BBX 4 7 0 0
BITMAP
30
00
F0
C0
70
90
F0
ENDCHAR
STARTCHAR Scircumflex
ENCODING 348
SWIDTH 569 0
DWIDTH 6 0
BBX 5 10 0 0
BITMAP
30
00
78
88
C0
78
38
08
88
F8
ENDCHAR
STARTCHAR scircumflex
ENCODING 349
SWIDTH 429 0
DWIDTH 4 0
BBX 4 7 0 0
BITMAP
60
00
F0
C0
70
90
F0
ENDCHAR
STARTCHAR Scedilla
ENCODING 350
SWIDTH 569 0
DWIDTH 6 0
BBX 5 10 0 -2
BITMAP
78
88
C0
78
38
08
88
C8
30
10
ENDCHAR
STARTCHAR scedilla
ENCODING 351
SWIDTH 429 0
DWIDTH 4 0
BBX 4 7 0 -2
BITMAP
F0
C0
70
90
D0
60
20
ENDCHAR
STARTCHAR Scaron
ENCODING 352
SWIDTH 569 0
DWIDTH 6 0
BBX 5 10 0 0
BITMAP
70
00
78
88
C0
78
38
08
88
F8
ENDCHAR
STARTCHAR scaron
ENCODING 353
SWIDTH 429 0
DWIDTH 4 0
BBX 4 8 0 0
BITMAP
50
60
00
F0
C0
70
90
F0
ENDCHAR
STARTCHAR uni0162
ENCODING 354
SWIDTH 724 0
DWIDTH 7 0
BBX 7 10 0 -2
BITMAP
FE
92
90
10
10
10
10
10
18
08
ENDCHAR
STARTCHAR uni0163
ENCODING 355
SWIDTH 354 0
DWIDTH 4 0
BBX 2 8 1 -2
BITMAP
80
80
80
80
80
C0
80
40
ENDCHAR
STARTCHAR Tcaron
ENCODING 356
SWIDTH 724 0
DWIDTH 7 0
BBX 7 10 0 0
BITMAP
38
00
FE
92
90
10
10
10
10
18
ENDCHAR
STARTCHAR tcaron
ENCODING 357
SWIDTH 379 0
DWIDTH 4 0
BBX 3 8 1 0
BITMAP
20
20
A0
80
80
80
80
C0
ENDCHAR
STARTCHAR Tbar
ENCODING 358
SWIDTH 724 0
DWIDTH 7 0
BBX 7 8 0 0
BITMAP
FE
92
90
10
18
10
10
18
ENDCHAR
STARTCHAR tbar
ENCODING 359
SWIDTH 354 0
DWIDTH 4 0
BBX 2 6 1 0
BITMAP
80
80
80
C0
80
C0
ENDCHAR
STARTCHAR Utilde
ENCODING 360
SWIDTH 774 0
DWIDTH 8 0
BBX 6 10 1 0
BITMAP
70
00
C4
C4
C4
C4
C4
C4
C4
78
ENDCHAR
STARTCHAR utilde
ENCODING 361
SWIDTH 613 0
DWIDTH 6 0
BBX 4 7 1 0
BITMAP
F0
00
90
90
90
90
F0
ENDCHAR
STARTCHAR Umacron
ENCODING 362
SWIDTH 774 0
DWIDTH 8 0
BBX 6 10 1 0
BITMAP
78
00
C4
C4
C4
C4
C4
C4
C4
78
ENDCHAR
STARTCHAR umacron
ENCODING 363
SWIDTH 613 0
DWIDTH 6 0
BBX 4 8 1 0
BITMAP
F0
00
00
90
90
90
90
F0
ENDCHAR
STARTCHAR Ubreve
ENCODING 364
SWIDTH 774 0
DWIDTH 8 0
BBX 6 10 1 0
BITMAP
30
00
C4
C4
C4
C4
C4
C4
C4
78
ENDCHAR
STARTCHAR ubreve
ENCODING 365
SWIDTH 613 0
DWIDTH 6 0
BBX 4 7 1 0
BITMAP
60
00
90
90
90
90
F0
ENDCHAR
STARTCHAR Uring
ENCODING 366
SWIDTH 774 0
DWIDTH 8 0
BBX 6 10 1 0
BITMAP
70
20
C4
C4
C4
C4
C4
C4
C4
78
ENDCHAR
STARTCHAR uring
ENCODING 367
SWIDTH 613 0
DWIDTH 6 0
BBX 4 8 1 0
BITMAP
60
60
00
90
90
90
90
F0
ENDCHAR
STARTCHAR Uhungarumlaut
ENCODING 368
SWIDTH 774 0
DWIDTH 8 0
BBX 6 10 1 0
BITMAP
14
28
C4
C4
C4
C4
C4
C4
C4
78
ENDCHAR
STARTCHAR uhungarumlaut
ENCODING 369
SWIDTH 613 0
DWIDTH 6 0
BBX 4 8 1 0
BITMAP
F0
A0
00
90
90
90
90
F0
ENDCHAR
STARTCHAR Uogonek
ENCODING 370
SWIDTH 774 0
DWIDTH 8 0
BBX 6 10 1 -2
BITMAP
C4
C4
C4
C4
C4
C4
C4
68
30
30
ENDCHAR
STARTCHAR uogonek
ENCODING 371
SWIDTH 613 0
DWIDTH 6 0
BBX 4 8 1 -3
BITMAP
90
90
90
90
F0
10
20
10
ENDCHAR
STARTCHAR Wcircumflex
ENCODING 372
SWIDTH 1019 0
DWIDTH 10 0
BBX 8 10 1 0
BITMAP
18
00
FC
DD
C9
4E
6E
76
24
24
ENDCHAR
STARTCHAR wcircumflex
ENCODING 373
SWIDTH 690 0
DWIDTH 7 0
BBX 6 6 0 1
BITMAP
10
28
D0
5C
6C
28
ENDCHAR
STARTCHAR Ycircumflex
ENCODING 374
SWIDTH 766 0
DWIDTH 8 0
BBX 6 10 1 0
BITMAP
30
00
C4
C8
68
30
30
30
30
30
ENDCHAR
STARTCHAR ycircumflex
ENCODING 375
SWIDTH 501 0
DWIDTH 5 0
BBX 4 11 0 -4
BITMAP
20
50
C0
50
70
20
20
20
40
40
C0
ENDCHAR
STARTCHAR Ydieresis
ENCODING 376
SWIDTH 766 0
DWIDTH 8 0
BBX 6 10 1 0
BITMAP
70
00
C4
C8
68
30
30
30
30
30
ENDCHAR
STARTCHAR Zacute
ENCODING 377
SWIDTH 621 0
DWIDTH 6 0
BBX 6 10 0 0
BITMAP
18
20
7C
8C
18
30
30
60
64
FC
ENDCHAR
STARTCHAR zacute
ENCODING 378
SWIDTH 476 0
DWIDTH 5 0
BBX 4 7 0 0
BITMAP
30
00
70
30
20
60
F0
ENDCHAR
STARTCHAR Zdotaccent
ENCODING 379
SWIDTH 621 0
DWIDTH 6 0
BBX 6 10 0 0
BITMAP
30
00
7C
8C
18
30
30
60
64
FC
ENDCHAR
STARTCHAR zdotaccent
ENCODING 380
SWIDTH 476 0
DWIDTH 5 0
BBX 4 8 0 0
BITMAP
20
20
00
70
30
20
60
F0
ENDCHAR
STARTCHAR Zcaron
ENCODING 381
SWIDTH 621 0
DWIDTH 6 0
BBX 6 10 0 0
BITMAP
30
00
7C
8C
18
30
30
60
64
FC
ENDCHAR
STARTCHAR zcaron
ENCODING 382
SWIDTH 476 0
DWIDTH 5 0
BBX 4 8 0 0
BITMAP
50
20
00
70
30
20
60
F0
ENDCHAR
STARTCHAR uni018F
ENCODING 399
SWIDTH 795 0
DWIDTH 8 0
BBX 8 8 0 0
BITMAP
3C
46
02
02
03
FE
46
3C
ENDCHAR
STARTCHAR florin
ENCODING 402
SWIDTH 435 0
DWIDTH 4 0
BBX 7 12 -2 -4
BITMAP
0E
0A
18
18
10
10
10
10
30
30
A0
C0
ENDCHAR
STARTCHAR Ohorn
ENCODING 416
SWIDTH 823 0
DWIDTH 8 0
BBX 8 8 0 0
BITMAP
3C
62
43
C3
C3
43
62
3C
ENDCHAR
STARTCHAR ohorn
ENCODING 417
SWIDTH 589 0
DWIDTH 6 0
BBX 5 5 0 0
BITMAP
78
48
C8
48
70
ENDCHAR
STARTCHAR Uhorn
ENCODING 431
SWIDTH 774 0
DWIDTH 8 0
BBX 7 9 1 0
BITMAP
02
C4
C4
C4
C4
C4
C4
C4
78
ENDCHAR
STARTCHAR uhorn
ENCODING 432
SWIDTH 613 0
DWIDTH 6 0
BBX 5 5 1 0
BITMAP
98
90
90
90
F0
ENDCHAR
STARTCHAR uni01C4
ENCODING 452
SWIDTH 1419 0
DWIDTH 14 0
BBX 13 10 1 0
BITMAP
0060
0000
F8F8
C510
C430
C660
C660
C4C0
C4C8
F9F8
ENDCHAR
STARTCHAR uni01C5
ENCODING 453
SWIDTH 1274 0
DWIDTH 13 0
BBX 11 8 1 0
BITMAP
F800
C4E0
C600
C6E0
C660
C440
CCC0
F9E0
ENDCHAR
STARTCHAR uni01C6
ENCODING 454
SWIDTH 1107 0
DWIDTH 11 0
BBX 11 8 0 0
BITMAP
0940
0880
0800
79E0
48C0
C880
49A0
79E0
ENDCHAR
STARTCHAR uni01C7
ENCODING 455
SWIDTH 1236 0
DWIDTH 12 0
BBX 10 9 1 -1
BITMAP
C0C0
C0C0
C0C0
C0C0
C0C0
C4C0
C4C0
CEC0
3380
ENDCHAR
STARTCHAR uni01C8
ENCODING 456
SWIDTH 999 0
DWIDTH 10 0
BBX 8 12 1 -4
BITMAP
C1
C1
C0
C1
C1
C5
C5
CD
31
01
05
06
ENDCHAR
STARTCHAR uni01C9
ENCODING 457
SWIDTH 647 0
DWIDTH 6 0
BBX 5 12 1 -4
BITMAP
80
98
80
98
98
98
98
98
18
18
30
30
ENDCHAR
STARTCHAR uni01CA
ENCODING 458
SWIDTH 1177 0
DWIDTH 12 0
BBX 10 9 1 -1
BITMAP
C4C0
E4C0
B4C0
B4C0
9CC0
8CC0
8CC0
8680
0380
ENDCHAR
STARTCHAR uni01CB
ENCODING 459
SWIDTH 1109 0
DWIDTH 11 0
BBX 9 12 1 -4
BITMAP
C480
E480
B400
BC80
9C80
8C80
8C80
8480
0080
0080
0280
0300
ENDCHAR
STARTCHAR uni01CC
ENCODING 460
SWIDTH 932 0
DWIDTH 9 0
BBX 8 12 1 -4
BITMAP
02
02
00
F3
D3
93
93
93
03
02
0E
06
ENDCHAR
STARTCHAR uni01EA
ENCODING 490
SWIDTH 823 0
DWIDTH 8 0
BBX 8 10 0 -2
BITMAP
3C
62
43
C3
C3
43
62
24
18
10
ENDCHAR
STARTCHAR uni01EB
ENCODING 491
SWIDTH 589 0
DWIDTH 6 0
BBX 5 7 0 -2
BITMAP
70
48
C8
48
50
A0
80
ENDCHAR
STARTCHAR uni01F1
ENCODING 497
SWIDTH 1419 0
DWIDTH 14 0
BBX 13 8 1 0
BITMAP
F8F8
C510
C430
C660
C660
C4C0
C4C8
F9F8
ENDCHAR
STARTCHAR uni01F2
ENCODING 498
SWIDTH 1274 0
DWIDTH 13 0
BBX 11 8 1 0
BITMAP
F800
C400
C400
C6E0
C660
C440
CCC0
F9E0
ENDCHAR
STARTCHAR uni01F3
ENCODING 499
SWIDTH 1107 0
DWIDTH 11 0
BBX 11 8 0 0
BITMAP
0800
0800
0800
79E0
48C0
C880
49A0
79E0
ENDCHAR
STARTCHAR uni01F4
ENCODING 500
SWIDTH 790 0
DWIDTH 8 0
BBX 7 10 0 0
BITMAP
08
10
3E
62
42
40
C0
46
66
3C
ENDCHAR
STARTCHAR uni01F5
ENCODING 501
SWIDTH 565 0
DWIDTH 6 0
BBX 6 11 0 -4
BITMAP
10
20
7C
58
58
50
A0
78
48
88
70
ENDCHAR
STARTCHAR Aringacute
ENCODING 506
SWIDTH 715 0
DWIDTH 7 0
BBX 6 11 1 0
BITMAP
18
70
20
20
20
30
70
90
98
F8
0C
ENDCHAR
STARTCHAR aringacute
ENCODING 507
SWIDTH 541 0
DWIDTH 5 0
BBX 5 9 0 0
BITMAP
18
30
30
00
70
58
78
D8
78
ENDCHAR
STARTCHAR AEacute
ENCODING 508
SWIDTH 1131 0
DWIDTH 11 0
BBX 10 10 1 0
BITMAP
0C00
0000
0FC0
1C40
2C00
2D00
4F00
BC00
8C40
8FC0
ENDCHAR
STARTCHAR aeacute
ENCODING 509
SWIDTH 816 0
DWIDTH 8 0
BBX 8 7 0 0
BITMAP
08
10
7E
5A
7C
D9
6E
ENDCHAR
STARTCHAR Oslashacute
ENCODING 510
SWIDTH 823 0
DWIDTH 8 0
BBX 8 10 0 0
BITMAP
04
18
2E
66
4B
CB
D3
63
62
3C
ENDCHAR
STARTCHAR oslashacute
ENCODING 511
SWIDTH 589 0
DWIDTH 6 0
BBX 5 7 0 0
BITMAP
10
20
78
58
E8
68
70
ENDCHAR
STARTCHAR uni0200
ENCODING 512
SWIDTH 715 0
DWIDTH 7 0
BBX 6 10 1 0
BITMAP
F0
08
20
20
30
70
90
98
F8
0C
ENDCHAR
STARTCHAR uni0201
ENCODING 513
SWIDTH 541 0
DWIDTH 5 0
BBX 5 8 0 0
BITMAP
F0
78
00
70
58
78
D8
78
ENDCHAR
STARTCHAR uni0202
ENCODING 514
SWIDTH 715 0
DWIDTH 7 0
BBX 6 10 1 0
BITMAP
30
40
20
20
30
70
90
98
F8
0C
ENDCHAR
STARTCHAR uni0203
ENCODING 515
SWIDTH 541 0
DWIDTH 5 0
BBX 5 8 0 0
BITMAP
70
40
00
70
58
78
D8
78
ENDCHAR
STARTCHAR uni0204
ENCODING 516
SWIDTH 696 0
DWIDTH 7 0
BBX 6 10 1 0
BITMAP
B0
40
F8
C0
C0
D0
F0
C4
C4
FC
ENDCHAR
STARTCHAR uni0205
ENCODING 517
SWIDTH 537 0
DWIDTH 5 0
BBX 5 8 0 0
BITMAP
F0
78
00
70
48
F0
40
78
ENDCHAR
STARTCHAR uni0206
ENCODING 518
SWIDTH 696 0
DWIDTH 7 0
BBX 6 10 1 0
BITMAP
70
00
F8
C0
C0
D0
F0
C4
C4
FC
ENDCHAR
STARTCHAR uni0207
ENCODING 519
SWIDTH 537 0
DWIDTH 5 0
BBX 5 8 0 0
BITMAP
70
40
00
70
48
F0
40
78
ENDCHAR
STARTCHAR uni0208
ENCODING 520
SWIDTH 386 0
DWIDTH 4 0
BBX 5 10 -1 0
BITMAP
D0
08
30
30
30
30
30
30
30
30
ENDCHAR
STARTCHAR uni0209
ENCODING 521
SWIDTH 319 0
DWIDTH 3 0
BBX 4 8 -1 0
BITMAP
F0
50
00
20
20
20
20
20
ENDCHAR
STARTCHAR uni020A
ENCODING 522
SWIDTH 386 0
DWIDTH 4 0
BBX 4 10 0 0
BITMAP
60
90
60
60
60
60
60
60
60
60
ENDCHAR
STARTCHAR uni020B
ENCODING 523
SWIDTH 319 0
DWIDTH 3 0
BBX 3 8 0 0
BITMAP
E0
00
00
40
40
40
40
40
ENDCHAR
STARTCHAR uni020C
ENCODING 524
SWIDTH 823 0
DWIDTH 8 0
BBX 8 10 0 0
BITMAP
28
04
3C
62
43
C3
C3
43
62
3C
ENDCHAR
STARTCHAR uni020D
ENCODING 525
SWIDTH 589 0
DWIDTH 6 0
BBX 5 8 0 0
BITMAP
50
28
00
70
48
C8
48
70
ENDCHAR
STARTCHAR uni020E
ENCODING 526
SWIDTH 823 0
DWIDTH 8 0
BBX 8 10 0 0
BITMAP
18
24
3C
62
43
C3
C3
43
62
3C
ENDCHAR
STARTCHAR uni020F
ENCODING 527
SWIDTH 589 0
DWIDTH 6 0
BBX 5 8 0 0
BITMAP
30
48
00
70
48
C8
48
70
ENDCHAR
STARTCHAR uni0210
ENCODING 528
SWIDTH 740 0
DWIDTH 7 0
BBX 6 10 1 0
BITMAP
F0
00
F8
CC
CC
D8
F8
C8
C8
CC
ENDCHAR
STARTCHAR uni0211
ENCODING 529
SWIDTH 506 0
DWIDTH 5 0
BBX 5 8 0 0
BITMAP
F0
50
00
58
78
40
40
40
ENDCHAR
STARTCHAR uni0212
ENCODING 530
SWIDTH 740 0
DWIDTH 7 0
BBX 6 10 1 0
BITMAP
70
00
F8
CC
CC
D8
F8
C8
C8
CC
ENDCHAR
STARTCHAR uni0213
ENCODING 531
SWIDTH 506 0
DWIDTH 5 0
BBX 4 8 1 0
BITMAP
E0
00
00
B0
F0
80
80
80
ENDCHAR
STARTCHAR uni0214
ENCODING 532
SWIDTH 774 0
DWIDTH 8 0
BBX 6 10 1 0
BITMAP
D0
00
C4
C4
C4
C4
C4
C4
C4
78
ENDCHAR
STARTCHAR uni0215
ENCODING 533
SWIDTH 613 0
DWIDTH 6 0
BBX 4 8 1 0
BITMAP
A0
50
00
90
90
90
90
F0
ENDCHAR
STARTCHAR uni0216
ENCODING 534
SWIDTH 774 0
DWIDTH 8 0
BBX 6 10 1 0
BITMAP
38
00
C4
C4
C4
C4
C4
C4
C4
78
ENDCHAR
STARTCHAR uni0217
ENCODING 535
SWIDTH 613 0
DWIDTH 6 0
BBX 4 8 1 0
BITMAP
60
90
00
90
90
90
90
F0
ENDCHAR
STARTCHAR Scommaaccent
ENCODING 536
SWIDTH 569 0
DWIDTH 6 0
BBX 5 12 0 -4
BITMAP
78
88
C0
78
38
08
88
C8
30
30
10
20
ENDCHAR
STARTCHAR scommaaccent
ENCODING 537
SWIDTH 429 0
DWIDTH 4 0
BBX 4 9 0 -4
BITMAP
F0
C0
70
90
D0
20
60
20
40
ENDCHAR
STARTCHAR uni021A
ENCODING 538
SWIDTH 724 0
DWIDTH 7 0
BBX 7 12 0 -4
BITMAP
FE
92
90
10
10
10
10
10
08
10
10
10
ENDCHAR
STARTCHAR uni021B
ENCODING 539
SWIDTH 354 0
DWIDTH 4 0
BBX 2 10 1 -4
BITMAP
80
80
80
80
80
C0
00
80
40
80
ENDCHAR
STARTCHAR uni0237
ENCODING 567
SWIDTH 318 0
DWIDTH 3 0
BBX 3 9 -1 -4
BITMAP
20
20
20
20
20
20
20
A0
E0
ENDCHAR
STARTCHAR uni0259
ENCODING 601
SWIDTH 537 0
DWIDTH 5 0
BBX 5 5 0 0
BITMAP
70
98
18
F8
70
ENDCHAR
STARTCHAR uni02BC
ENCODING 700
SWIDTH 186 0
DWIDTH 2 0
BBX 2 2 0 6
BITMAP
C0
40
ENDCHAR
STARTCHAR circumflex
ENCODING 710
SWIDTH 384 0
DWIDTH 4 0
BBX 3 2 0 6
BITMAP
60
A0
ENDCHAR
STARTCHAR caron
ENCODING 711
SWIDTH 384 0
DWIDTH 4 0
BBX 3 2 0 6
BITMAP
A0
60
ENDCHAR
STARTCHAR uni02C9
ENCODING 713
SWIDTH 360 0
DWIDTH 4 0
BBX 3 1 0 6
BITMAP
E0
ENDCHAR
STARTCHAR breve
ENCODING 728
SWIDTH 353 0
DWIDTH 4 0
BBX 3 2 0 6
BITMAP
80
60
ENDCHAR
STARTCHAR dotaccent
ENCODING 729
SWIDTH 181 0
DWIDTH 2 0
BBX 2 1 0 6
BITMAP
C0
ENDCHAR
STARTCHAR ring
ENCODING 730
SWIDTH 224 0
DWIDTH 2 0
BBX 2 2 0 6
BITMAP
C0
C0
ENDCHAR
STARTCHAR ogonek
ENCODING 731
SWIDTH 249 0
DWIDTH 2 0
BBX 2 2 0 -2
BITMAP
40
80
ENDCHAR
STARTCHAR tilde
ENCODING 732
SWIDTH 412 0
DWIDTH 4 0
BBX 3 1 1 6
BITMAP
E0
ENDCHAR
STARTCHAR hungarumlaut
ENCODING 733
SWIDTH 468 0
DWIDTH 5 0
BBX 4 2 1 6
BITMAP
F0
A0
ENDCHAR
STARTCHAR gravecomb
ENCODING 768
SWIDTH 0 0
DWIDTH 0 0
BBX 2 1 -5 6
BITMAP
C0
ENDCHAR
STARTCHAR acutecomb
ENCODING 769
SWIDTH 0 0
DWIDTH 0 0
BBX 2 1 -3 5
BITMAP
C0
ENDCHAR
STARTCHAR uni0302
ENCODING 770
SWIDTH 0 0
DWIDTH 0 0
BBX 2 1 -4 5
BITMAP
C0
ENDCHAR
STARTCHAR tildecomb
ENCODING 771
SWIDTH 0 0
DWIDTH 0 0
BBX 3 1 -4 6
BITMAP
E0
ENDCHAR
STARTCHAR uni0306
ENCODING 774
SWIDTH 0 0
DWIDTH 0 0
BBX 2 1 -4 5
BITMAP
C0
ENDCHAR
STARTCHAR hookabovecomb
ENCODING 777
SWIDTH 0 0
DWIDTH 0 0
BBX 2 2 -4 5
BITMAP
C0
40
ENDCHAR
STARTCHAR uni030F
ENCODING 783
SWIDTH 0 0
DWIDTH 0 0
BBX 4 2 -5 6
BITMAP
F0
50
ENDCHAR
STARTCHAR uni0311
ENCODING 785
SWIDTH 0 0
DWIDTH 0 0
BBX 3 2 -3 5
BITMAP
C0
20
ENDCHAR
STARTCHAR uni031B
ENCODING 795
SWIDTH 0 0
DWIDTH 0 0
BBX 2 1 -4 5
BITMAP
C0
ENDCHAR
STARTCHAR dotbelowcomb
ENCODING 803
SWIDTH 0 0
DWIDTH 0 0
BBX 2 1 -4 -2
BITMAP
C0
ENDCHAR
STARTCHAR uni0326
ENCODING 806
SWIDTH 0 0
DWIDTH 0 0
BBX 2 3 -2 -4
BITMAP
C0
40
80
ENDCHAR
STARTCHAR uni0335
ENCODING 821
SWIDTH 0 0
DWIDTH 0 0
BBX 2 1 -3 0
BITMAP
C0
ENDCHAR
STARTCHAR uni0394
ENCODING 916
SWIDTH 727 0
DWIDTH 7 0
BBX 7 7 0 0
BITMAP
10
18
38
4C
4C
44
FE
ENDCHAR
STARTCHAR uni03A9
ENCODING 937
SWIDTH 812 0
DWIDTH 8 0
BBX 8 7 0 0
BITMAP
3C
66
62
62
66
A5
77
ENDCHAR
STARTCHAR uni03BC
ENCODING 956
SWIDTH 613 0
DWIDTH 6 0
BBX 5 8 0 -3
BITMAP
48
48
48
48
78
80
40
40
ENDCHAR
STARTCHAR pi
ENCODING 960
SWIDTH 652 0
DWIDTH 7 0
BBX 5 5 1 0
BITMAP
F8
90
90
90
98
ENDCHAR
STARTCHAR uni1E0C
ENCODING 7692
SWIDTH 798 0
DWIDTH 8 0
BBX 7 10 1 -2
BITMAP
F8
C4
C4
C6
C6
C4
C4
C8
30
30
ENDCHAR
STARTCHAR uni1E0D
ENCODING 7693
SWIDTH 631 0
DWIDTH 6 0
BBX 5 11 0 -3
BITMAP
08
08
08
78
48
C8
48
58
20
30
10
ENDCHAR
STARTCHAR uni1E24
ENCODING 7716
SWIDTH 826 0
DWIDTH 8 0
BBX 6 11 1 -3
BITMAP
C4
C4
C4
C4
FC
C4
C4
C4
00
30
10
ENDCHAR
STARTCHAR uni1E25
ENCODING 7717
SWIDTH 619 0
DWIDTH 6 0
BBX 4 10 1 -2
BITMAP
80
80
80
F0
D0
90
90
90
00
60
ENDCHAR
STARTCHAR uni1E44
ENCODING 7748
SWIDTH 791 0
DWIDTH 8 0
BBX 6 10 1 0
BITMAP
30
00
C4
E4
B4
B4
9C
8C
8C
84
ENDCHAR
STARTCHAR uni1E45
ENCODING 7749
SWIDTH 614 0
DWIDTH 6 0
BBX 4 7 1 0
BITMAP
60
00
F0
D0
90
90
90
ENDCHAR
STARTCHAR uni1E5A
ENCODING 7770
SWIDTH 740 0
DWIDTH 7 0
BBX 6 11 1 -3
BITMAP
F8
CC
CC
D8
F8
C8
C8
CC
00
20
20
ENDCHAR
STARTCHAR uni1E5B
ENCODING 7771
SWIDTH 506 0
DWIDTH 5 0
BBX 4 8 1 -3
BITMAP
B0
F0
80
80
80
00
40
40
ENDCHAR
STARTCHAR uni1E62
ENCODING 7778
SWIDTH 569 0
DWIDTH 6 0
BBX 5 11 0 -3
BITMAP
78
88
C0
78
38
08
88
C8
30
30
20
ENDCHAR
STARTCHAR uni1E63
ENCODING 7779
SWIDTH 429 0
DWIDTH 4 0
BBX 4 8 0 -3
BITMAP
F0
C0
70
90
D0
20
60
20
ENDCHAR
STARTCHAR uni1E6C
ENCODING 7788
SWIDTH 724 0
DWIDTH 7 0
BBX 7 11 0 -3
BITMAP
FE
92
90
10
10
10
10
10
08
10
10
ENDCHAR
STARTCHAR uni1E6D
ENCODING 7789
SWIDTH 354 0
DWIDTH 4 0
BBX 2 9 1 -3
BITMAP
80
80
80
80
80
C0
00
80
80
ENDCHAR
STARTCHAR Wgrave
ENCODING 7808
SWIDTH 1019 0
DWIDTH 10 0
BBX 8 10 1 0
BITMAP
18
00
FC
DD
C9
4E
6E
76
24
24
ENDCHAR
STARTCHAR wgrave
ENCODING 7809
SWIDTH 690 0
DWIDTH 7 0
BBX 6 6 0 1
BITMAP
30
00
D0
5C
6C
28
ENDCHAR
STARTCHAR Wacute
ENCODING 7810
SWIDTH 1019 0
DWIDTH 10 0
BBX 8 10 1 0
BITMAP
0C
10
FC
DD
C9
4E
6E
76
24
24
ENDCHAR
STARTCHAR wacute
ENCODING 7811
SWIDTH 690 0
DWIDTH 7 0
BBX 6 6 0 1
BITMAP
18
00
D0
5C
6C
28
ENDCHAR
STARTCHAR Wdieresis
ENCODING 7812
SWIDTH 1019 0
DWIDTH 10 0
BBX 8 10 1 0
BITMAP
1C
00
FC
DD
C9
4E
6E
76
24
24
ENDCHAR
STARTCHAR wdieresis
ENCODING 7813
SWIDTH 690 0
DWIDTH 7 0
BBX 6 7 0 1
BITMAP
28
00
00
D0
5C
6C
28
ENDCHAR
STARTCHAR uni1E92
ENCODING 7826
SWIDTH 621 0
DWIDTH 6 0
BBX 6 10 0 -2
BITMAP
7C
8C
18
30
30
60
64
CC
30
30
ENDCHAR
STARTCHAR uni1E93
ENCODING 7827
SWIDTH 476 0
DWIDTH 5 0
BBX 4 8 0 -3
BITMAP
70
30
20
60
D0
20
20
20
ENDCHAR
STARTCHAR uni1EA0
ENCODING 7840
SWIDTH 715 0
DWIDTH 7 0
BBX 6 11 1 -3
BITMAP
20
20
30
70
90
98
F8
0C
00
20
20
ENDCHAR
STARTCHAR uni1EA1
ENCODING 7841
SWIDTH 541 0
DWIDTH 5 0
BBX 5 8 0 -3
BITMAP
70
58
78
D8
78
00
20
20
ENDCHAR
STARTCHAR uni1EA2
ENCODING 7842
SWIDTH 715 0
DWIDTH 7 0
BBX 6 10 1 0
BITMAP
70
00
20
20
30
70
90
98
F8
0C
ENDCHAR
STARTCHAR uni1EA3
ENCODING 7843
SWIDTH 541 0
DWIDTH 5 0
BBX 5 7 0 0
BITMAP
50
00
70
58
78
D8
78
ENDCHAR
STARTCHAR uni1EA4
ENCODING 7844
SWIDTH 715 0
DWIDTH 7 0
BBX 6 12 1 0
BITMAP
10
30
30
00
20
20
30
70
90
98
F8
0C
ENDCHAR
STARTCHAR uni1EA5
ENCODING 7845
SWIDTH 541 0
DWIDTH 5 0
BBX 5 9 0 0
BITMAP
10
20
30
00
70
58
78
D8
78
ENDCHAR
STARTCHAR uni1EA6
ENCODING 7846
SWIDTH 715 0
DWIDTH 7 0
BBX 6 12 1 0
BITMAP
60
10
30
00
20
20
30
70
90
98
F8
0C
ENDCHAR
STARTCHAR uni1EA7
ENCODING 7847
SWIDTH 541 0
DWIDTH 5 0
BBX 5 9 0 0
BITMAP
40
30
30
00
70
58
78
D8
78
ENDCHAR
STARTCHAR uni1EA8
ENCODING 7848
SWIDTH 715 0
DWIDTH 7 0
BBX 6 12 1 0
BITMAP
18
08
30
00
20
20
30
70
90
98
F8
0C
ENDCHAR
STARTCHAR uni1EA9
ENCODING 7849
SWIDTH 541 0
DWIDTH 5 0
BBX 5 9 0 0
BITMAP
18
08
30
00
70
58
78
D8
78
ENDCHAR
STARTCHAR uni1EAA
ENCODING 7850
SWIDTH 715 0
DWIDTH 7 0
BBX 6 12 1 0
BITMAP
70
00
30
00
20
20
30
70
90
98
F8
0C
ENDCHAR
STARTCHAR uni1EAB
ENCODING 7851
SWIDTH 541 0
DWIDTH 5 0
BBX 5 9 0 0
BITMAP
60
30
30
00
70
58
78
D8
78
ENDCHAR
STARTCHAR uni1EAC
ENCODING 7852
SWIDTH 715 0
DWIDTH 7 0
BBX 6 13 1 -3
BITMAP
30
00
20
20
30
70
90
98
F8
0C
00
20
20
ENDCHAR
STARTCHAR uni1EAD
ENCODING 7853
SWIDTH 541 0
DWIDTH 5 0
BBX 5 10 0 -3
BITMAP
30
00
70
58
78
D8
78
00
20
20
ENDCHAR
STARTCHAR uni1EAE
ENCODING 7854
SWIDTH 715 0
DWIDTH 7 0
BBX 6 12 1 0
BITMAP
30
00
30
00
20
20
30
70
90
98
F8
0C
ENDCHAR
STARTCHAR uni1EAF
ENCODING 7855
SWIDTH 541 0
DWIDTH 5 0
BBX 5 9 0 0
BITMAP
30
00
30
00
70
58
78
D8
78
ENDCHAR
STARTCHAR uni1EB0
ENCODING 7856
SWIDTH 715 0
DWIDTH 7 0
BBX 6 12 1 0
BITMAP
60
00
30
00
20
20
30
70
90
98
F8
0C
ENDCHAR
STARTCHAR uni1EB1
ENCODING 7857
SWIDTH 541 0
DWIDTH 5 0
BBX 5 9 0 0
BITMAP
60
00
30
00
70
58
78
D8
78
ENDCHAR
STARTCHAR uni1EB2
ENCODING 7858
SWIDTH 715 0
DWIDTH 7 0
BBX 6 12 1 0
BITMAP
70
00
30
00
20
20
30
70
90
98
F8
0C
ENDCHAR
STARTCHAR uni1EB3
ENCODING 7859
SWIDTH 541 0
DWIDTH 5 0
BBX 5 9 0 0
BITMAP
60
20
30
00
70
58
78
D8
78
ENDCHAR
STARTCHAR uni1EB4
ENCODING 7860
SWIDTH 715 0
DWIDTH 7 0
BBX 6 12 1 0
BITMAP
70
00
30
00
20
20
30
70
90
98
F8
0C
ENDCHAR
STARTCHAR uni1EB5
ENCODING 7861
SWIDTH 541 0
DWIDTH 5 0
BBX 5 9 0 0
BITMAP
70
00
30
00
70
58
78
D8
78
ENDCHAR
STARTCHAR uni1EB6
ENCODING 7862
SWIDTH 715 0
DWIDTH 7 0
BBX 6 13 1 -3
BITMAP
30
00
20
20
30
70
90
98
F8
0C
00
20
20
ENDCHAR
STARTCHAR uni1EB7
ENCODING 7863
SWIDTH 541 0
DWIDTH 5 0
BBX 5 10 0 -3
BITMAP
30
00
70
58
78
D8
78
00
20
20
ENDCHAR
STARTCHAR uni1EB8
ENCODING 7864
SWIDTH 696 0
DWIDTH 7 0
BBX 6 11 1 -3
BITMAP
F8
C0
C0
D0
F0
C4
C4
CC
30
20
20
ENDCHAR
STARTCHAR uni1EB9
ENCODING 7865
SWIDTH 537 0
DWIDTH 5 0
BBX 5 8 0 -3
BITMAP
70
48
F0
40
58
20
20
20
ENDCHAR
STARTCHAR uni1EBA
ENCODING 7866
SWIDTH 696 0
DWIDTH 7 0
BBX 6 10 1 0
BITMAP
70
00
F8
C0
C0
D0
F0
C4
C4
FC
ENDCHAR
STARTCHAR uni1EBB
ENCODING 7867
SWIDTH 537 0
DWIDTH 5 0
BBX 5 7 0 0
BITMAP
70
00
70
48
F0
40
78
ENDCHAR
STARTCHAR uni1EBC
ENCODING 7868
SWIDTH 696 0
DWIDTH 7 0
BBX 6 10 1 0
BITMAP
70
00
F8
C0
C0
D0
F0
C4
C4
FC
ENDCHAR
STARTCHAR uni1EBD
ENCODING 7869
SWIDTH 537 0
DWIDTH 5 0
BBX 5 7 0 0
BITMAP
70
00
70
48
F0
40
78
ENDCHAR
STARTCHAR uni1EBE
ENCODING 7870
SWIDTH 696 0
DWIDTH 7 0
BBX 6 12 1 0
BITMAP
10
60
20
50
F8
C0
C0
D0
F0
C4
C4
FC
ENDCHAR
STARTCHAR uni1EBF
ENCODING 7871
SWIDTH 537 0
DWIDTH 5 0
BBX 5 9 0 0
BITMAP
10
20
30
00
70
48
F0
40
78
ENDCHAR
STARTCHAR uni1EC0
ENCODING 7872
SWIDTH 696 0
DWIDTH 7 0
BBX 6 12 1 0
BITMAP
40
30
20
50
F8
C0
C0
D0
F0
C4
C4
FC
ENDCHAR
STARTCHAR uni1EC1
ENCODING 7873
SWIDTH 537 0
DWIDTH 5 0
BBX 5 9 0 0
BITMAP
40
30
30
00
70
48
F0
40
78
ENDCHAR
STARTCHAR uni1EC2
ENCODING 7874
SWIDTH 696 0
DWIDTH 7 0
BBX 6 12 1 0
BITMAP
18
08
20
50
F8
C0
C0
D0
F0
C4
C4
FC
ENDCHAR
STARTCHAR uni1EC3
ENCODING 7875
SWIDTH 537 0
DWIDTH 5 0
BBX 5 9 0 0
BITMAP
18
08
30
00
70
48
F0
40
78
ENDCHAR
STARTCHAR uni1EC4
ENCODING 7876
SWIDTH 696 0
DWIDTH 7 0
BBX 6 12 1 0
BITMAP
60
30
20
50
F8
C0
C0
D0
F0
C4
C4
FC
ENDCHAR
STARTCHAR uni1EC5
ENCODING 7877
SWIDTH 537 0
DWIDTH 5 0
BBX 5 9 0 0
BITMAP
60
30
30
00
70
48
F0
40
78
ENDCHAR
STARTCHAR uni1EC6
ENCODING 7878
SWIDTH 696 0
DWIDTH 7 0
BBX 6 13 1 -3
BITMAP
20
50
F8
C0
C0
D0
F0
C4
C4
CC
30
20
20
ENDCHAR
STARTCHAR uni1EC7
ENCODING 7879
SWIDTH 537 0
DWIDTH 5 0
BBX 5 10 0 -3
BITMAP
30
00
70
48
F0
40
58
20
20
20
ENDCHAR
STARTCHAR uni1EC8
ENCODING 7880
SWIDTH 386 0
DWIDTH 4 0
BBX 2 10 1 0
BITMAP
C0
00
C0
C0
C0
C0
C0
C0
C0
C0
ENDCHAR
STARTCHAR uni1EC9
ENCODING 7881
SWIDTH 319 0
DWIDTH 3 0
BBX 3 7 0 0
BITMAP
E0
00
40
40
40
40
40
ENDCHAR
STARTCHAR uni1ECA
ENCODING 7882
SWIDTH 386 0
DWIDTH 4 0
BBX 2 10 1 -2
BITMAP
C0
C0
C0
C0
C0
C0
C0
C0
00
C0
ENDCHAR
STARTCHAR uni1ECB
ENCODING 7883
SWIDTH 319 0
DWIDTH 3 0
BBX 1 11 1 -3
BITMAP
80
80
00
80
80
80
80
80
00
80
80
ENDCHAR
STARTCHAR uni1ECC
ENCODING 7884
SWIDTH 823 0
DWIDTH 8 0
BBX 8 11 0 -3
BITMAP
3C
62
43
C3
C3
43
62
24
18
18
08
ENDCHAR
STARTCHAR uni1ECD
ENCODING 7885
SWIDTH 589 0
DWIDTH 6 0
BBX 5 7 0 -2
BITMAP
70
48
C8
48
50
20
30
ENDCHAR
STARTCHAR uni1ECE
ENCODING 7886
SWIDTH 823 0
DWIDTH 8 0
BBX 8 10 0 0
BITMAP
18
00
3C
62
43
C3
C3
43
62
3C
ENDCHAR
STARTCHAR uni1ECF
ENCODING 7887
SWIDTH 589 0
DWIDTH 6 0
BBX 5 7 0 0
BITMAP
30
00
70
48
C8
48
70
ENDCHAR
STARTCHAR uni1ED0
ENCODING 7888
SWIDTH 823 0
DWIDTH 8 0
BBX 8 11 0 0
BITMAP
18
18
00
3C
62
43
C3
C3
43
62
3C
ENDCHAR
STARTCHAR uni1ED1
ENCODING 7889
SWIDTH 589 0
DWIDTH 6 0
BBX 5 8 0 0
BITMAP
30
30
00
70
48
C8
48
70
ENDCHAR
STARTCHAR uni1ED2
ENCODING 7890
SWIDTH 823 0
DWIDTH 8 0
BBX 8 12 0 0
BITMAP
10
08
18
00
3C
62
43
C3
C3
43
62
3C
ENDCHAR
STARTCHAR uni1ED3
ENCODING 7891
SWIDTH 589 0
DWIDTH 6 0
BBX 5 9 0 0
BITMAP
60
10
30
00
70
48
C8
48
70
ENDCHAR
STARTCHAR uni1ED4
ENCODING 7892
SWIDTH 823 0
DWIDTH 8 0
BBX 8 12 0 0
BITMAP
0C
04
18
00
3C
62
43
C3
C3
43
62
3C
ENDCHAR
STARTCHAR uni1ED5
ENCODING 7893
SWIDTH 589 0
DWIDTH 6 0
BBX 5 9 0 0
BITMAP
18
08
30
00
70
48
C8
48
70
ENDCHAR
STARTCHAR uni1ED6
ENCODING 7894
SWIDTH 823 0
DWIDTH 8 0
BBX 8 12 0 0
BITMAP
10
0C
18
00
3C
62
43
C3
C3
43
62
3C
ENDCHAR
STARTCHAR uni1ED7
ENCODING 7895
SWIDTH 589 0
DWIDTH 6 0
BBX 5 9 0 0
BITMAP
60
10
30
00
70
48
C8
48
70
ENDCHAR
STARTCHAR uni1ED8
ENCODING 7896
SWIDTH 823 0
DWIDTH 8 0
BBX 8 13 0 -3
BITMAP
18
00
3C
62
43
C3
C3
43
62
24
18
18
08
ENDCHAR
STARTCHAR uni1ED9
ENCODING 7897
SWIDTH 589 0
DWIDTH 6 0
BBX 5 9 0 -2
BITMAP
30
00
70
48
C8
48
50
20
30
ENDCHAR
STARTCHAR uni1EDA
ENCODING 7898
SWIDTH 823 0
DWIDTH 8 0
BBX 8 10 0 0
BITMAP
0C
10
3C
62
43
C3
C3
43
62
3C
ENDCHAR
STARTCHAR uni1EDB
ENCODING 7899
SWIDTH 589 0
DWIDTH 6 0
BBX 5 7 0 0
BITMAP
10
20
78
48
C8
48
70
ENDCHAR
STARTCHAR uni1EDC
ENCODING 7900
SWIDTH 823 0
DWIDTH 8 0
BBX 8 10 0 0
BITMAP
18
00
3C
62
43
C3
C3
43
62
3C
ENDCHAR
STARTCHAR uni1EDD
ENCODING 7901
SWIDTH 589 0
DWIDTH 6 0
BBX 5 7 0 0
BITMAP
20
10
78
48
C8
48
70
ENDCHAR
STARTCHAR uni1EDE
ENCODING 7902
SWIDTH 823 0
DWIDTH 8 0
BBX 8 10 0 0
BITMAP
18
00
3C
62
43
C3
C3
43
62
3C
ENDCHAR
STARTCHAR uni1EDF
ENCODING 7903
SWIDTH 589 0
DWIDTH 6 0
BBX 5 7 0 0
BITMAP
30
00
78
48
C8
48
70
ENDCHAR
STARTCHAR uni1EE0
ENCODING 7904
SWIDTH 823 0
DWIDTH 8 0
BBX 8 10 0 0
BITMAP
1C
00
3C
62
43
C3
C3
43
62
3C
ENDCHAR
STARTCHAR uni1EE1
ENCODING 7905
SWIDTH 589 0
DWIDTH 6 0
BBX 5 7 0 0
BITMAP
78
00
78
48
C8
48
70
ENDCHAR
STARTCHAR uni1EE2
ENCODING 7906
SWIDTH 823 0
DWIDTH 8 0
BBX 8 11 0 -3
BITMAP
3C
62
43
C3
C3
43
62
24
18
18
08
ENDCHAR
STARTCHAR uni1EE3
ENCODING 7907
SWIDTH 589 0
DWIDTH 6 0
BBX 5 7 0 -2
BITMAP
78
48
C8
48
50
20
30
ENDCHAR
STARTCHAR uni1EE4
ENCODING 7908
SWIDTH 774 0
DWIDTH 8 0
BBX 6 11 1 -3
BITMAP
C4
C4
C4
C4
C4
C4
C4
68
10
30
20
ENDCHAR
STARTCHAR uni1EE5
ENCODING 7909
SWIDTH 613 0
DWIDTH 6 0
BBX 4 7 1 -2
BITMAP
90
90
90
90
F0
00
60
ENDCHAR
STARTCHAR uni1EE6
ENCODING 7910
SWIDTH 774 0
DWIDTH 8 0
BBX 6 10 1 0
BITMAP
30
00
C4
C4
C4
C4
C4
C4
C4
78
ENDCHAR
STARTCHAR uni1EE7
ENCODING 7911
SWIDTH 613 0
DWIDTH 6 0
BBX 4 7 1 0
BITMAP
60
00
90
90
90
90
F0
ENDCHAR
STARTCHAR uni1EE8
ENCODING 7912
SWIDTH 774 0
DWIDTH 8 0
BBX 7 10 1 0
BITMAP
10
22
C4
C4
C4
C4
C4
C4
C4
78
ENDCHAR
STARTCHAR uni1EE9
ENCODING 7913
SWIDTH 613 0
DWIDTH 6 0
BBX 5 7 1 0
BITMAP
30
40
98
90
90
90
F0
ENDCHAR
STARTCHAR uni1EEA
ENCODING 7914
SWIDTH 774 0
DWIDTH 8 0
BBX 7 10 1 0
BITMAP
60
02
C4
C4
C4
C4
C4
C4
C4
78
ENDCHAR
STARTCHAR uni1EEB
ENCODING 7915
SWIDTH 613 0
DWIDTH 6 0
BBX 5 7 1 0
BITMAP
60
00
98
90
90
90
F0
ENDCHAR
STARTCHAR uni1EEC
ENCODING 7916
SWIDTH 774 0
DWIDTH 8 0
BBX 7 10 1 0
BITMAP
38
02
C4
C4
C4
C4
C4
C4
C4
78
ENDCHAR
STARTCHAR uni1EED
ENCODING 7917
SWIDTH 613 0
DWIDTH 6 0
BBX 5 7 1 0
BITMAP
60
00
98
90
90
90
F0
ENDCHAR
STARTCHAR uni1EEE
ENCODING 7918
SWIDTH 774 0
DWIDTH 8 0
BBX 7 10 1 0
BITMAP
38
02
C4
C4
C4
C4
C4
C4
C4
78
ENDCHAR
STARTCHAR uni1EEF
ENCODING 7919
SWIDTH 613 0
DWIDTH 6 0
BBX 4 7 1 0
BITMAP
F0
00
90
90
90
90
F0
ENDCHAR
STARTCHAR uni1EF0
ENCODING 7920
SWIDTH 774 0
DWIDTH 8 0
BBX 7 12 1 -3
BITMAP
02
C4
C4
C4
C4
C4
C4
C4
68
10
30
20
ENDCHAR
STARTCHAR uni1EF1
ENCODING 7921
SWIDTH 613 0
DWIDTH 6 0
BBX 5 7 1 -2
BITMAP
98
90
90
90
F0
00
60
ENDCHAR
STARTCHAR Ygrave
ENCODING 7922
SWIDTH 766 0
DWIDTH 8 0
BBX 6 10 1 0
BITMAP
60
00
C4
C8
68
30
30
30
30
30
ENDCHAR
STARTCHAR ygrave
ENCODING 7923
SWIDTH 501 0
DWIDTH 5 0
BBX 4 11 0 -4
BITMAP
60
00
C0
50
70
20
20
20
40
40
C0
ENDCHAR
STARTCHAR uni1EF4
ENCODING 7924
SWIDTH 766 0
DWIDTH 8 0
BBX 6 11 1 -3
BITMAP
C4
C8
68
30
30
30
30
30
00
30
20
ENDCHAR
STARTCHAR uni1EF5
ENCODING 7925
SWIDTH 501 0
DWIDTH 5 0
BBX 4 9 0 -4
BITMAP
C0
50
70
20
20
20
50
50
C0
ENDCHAR
STARTCHAR uni1EF6
ENCODING 7926
SWIDTH 766 0
DWIDTH 8 0
BBX 6 10 1 0
BITMAP
30
00
C4
C8
68
30
30
30
30
30
ENDCHAR
STARTCHAR uni1EF7
ENCODING 7927
SWIDTH 501 0
DWIDTH 5 0
BBX 4 11 0 -4
BITMAP
70
00
C0
50
70
20
20
20
40
40
C0
ENDCHAR
STARTCHAR uni1EF8
ENCODING 7928
SWIDTH 766 0
DWIDTH 8 0
BBX 6 10 1 0
BITMAP
70
00
C4
C8
68
30
30
30
30
30
ENDCHAR
STARTCHAR uni1EF9
ENCODING 7929
SWIDTH 501 0
DWIDTH 5 0
BBX 4 11 0 -4
BITMAP
70
00
C0
50
70
20
20
20
40
40
C0
ENDCHAR
STARTCHAR endash
ENCODING 8211
SWIDTH 584 0
DWIDTH 6 0
BBX 6 1 0 2
BITMAP
FC
ENDCHAR
STARTCHAR emdash
ENCODING 8212
SWIDTH 875 0
DWIDTH 9 0
BBX 9 1 0 2
BITMAP
FF80
ENDCHAR
STARTCHAR quoteleft
ENCODING 8216
SWIDTH 308 0
DWIDTH 3 0
BBX 2 3 0 4
BITMAP
80
C0
40
ENDCHAR
STARTCHAR quoteright
ENCODING 8217
SWIDTH 308 0
DWIDTH 3 0
BBX 2 3 1 5
BITMAP
80
C0
80
ENDCHAR
STARTCHAR quotesinglbase
ENCODING 8218
SWIDTH 308 0
DWIDTH 3 0
BBX 2 3 1 -1
BITMAP
80
C0
80
ENDCHAR
STARTCHAR quotedblleft
ENCODING 8220
SWIDTH 561 0
DWIDTH 6 0
BBX 5 4 0 4
BITMAP
08
90
D8
58
ENDCHAR
STARTCHAR quotedblright
ENCODING 8221
SWIDTH 561 0
DWIDTH 6 0
BBX 4 4 1 4
BITMAP
B0
F0
90
80
ENDCHAR
STARTCHAR quotedblbase
ENCODING 8222
SWIDTH 561 0
DWIDTH 6 0
BBX 4 3 1 -1
BITMAP
B0
F0
90
ENDCHAR
STARTCHAR dagger
ENCODING 8224
SWIDTH 541 0
DWIDTH 5 0
BBX 5 9 0 -1
BITMAP
20
20
F8
20
20
20
20
20
20
ENDCHAR
STARTCHAR daggerdbl
ENCODING 8225
SWIDTH 541 0
DWIDTH 5 0
BBX 5 11 0 -3
BITMAP
20
20
F8
20
20
20
20
20
F8
20
20
ENDCHAR
STARTCHAR bullet
ENCODING 8226
SWIDTH 410 0
DWIDTH 4 0
BBX 2 2 1 3
BITMAP
C0
C0
ENDCHAR
STARTCHAR ellipsis
ENCODING 8230
SWIDTH 822 0
DWIDTH 8 0
BBX 7 2 1 0
BITMAP
94
B6
ENDCHAR
STARTCHAR perthousand
ENCODING 8240
SWIDTH 1353 0
DWIDTH 14 0
BBX 13 8 0 0
BITMAP
7200
5400
D400
5800
2F38
14E8
14A8
2738
ENDCHAR
STARTCHAR guilsinglleft
ENCODING 8249
SWIDTH 345 0
DWIDTH 3 0
BBX 2 4 1 0
BITMAP
40
80
80
40
ENDCHAR
STARTCHAR guilsinglright
ENCODING 8250
SWIDTH 345 0
DWIDTH 3 0
BBX 2 3 1 1
BITMAP
80
C0
80
ENDCHAR
STARTCHAR fraction
ENCODING 8260
SWIDTH 489 0
DWIDTH 5 0
BBX 5 8 0 0
BITMAP
08
10
10
20
20
40
40
80
ENDCHAR
STARTCHAR uni2070
ENCODING 8304
SWIDTH 419 0
DWIDTH 4 0
BBX 4 4 0 5
BITMAP
60
90
90
F0
ENDCHAR
STARTCHAR uni2074
ENCODING 8308
SWIDTH 391 0
DWIDTH 4 0
BBX 4 4 0 5
BITMAP
20
E0
A0
70
ENDCHAR
STARTCHAR uni2075
ENCODING 8309
SWIDTH 362 0
DWIDTH 4 0
BBX 3 4 0 5
BITMAP
60
80
60
E0
ENDCHAR
STARTCHAR uni2076
ENCODING 8310
SWIDTH 352 0
DWIDTH 4 0
BBX 3 4 0 5
BITMAP
40
40
A0
E0
ENDCHAR
STARTCHAR uni2077
ENCODING 8311
SWIDTH 351 0
DWIDTH 4 0
BBX 2 4 1 5
BITMAP
C0
40
80
80
ENDCHAR
STARTCHAR uni2078
ENCODING 8312
SWIDTH 356 0
DWIDTH 4 0
BBX 3 4 0 5
BITMAP
E0
A0
E0
E0
ENDCHAR
STARTCHAR uni2079
ENCODING 8313
SWIDTH 352 0
DWIDTH 4 0
BBX 3 4 0 5
BITMAP
E0
A0
A0
60
ENDCHAR
STARTCHAR uni2080
ENCODING 8320
SWIDTH 419 0
DWIDTH 4 0
BBX 4 4 0 -1
BITMAP
60
90
90
E0
ENDCHAR
STARTCHAR uni2081
ENCODING 8321
SWIDTH 279 0
DWIDTH 3 0
BBX 1 4 1 -1
BITMAP
80
80
80
80
ENDCHAR
STARTCHAR uni2082
ENCODING 8322
SWIDTH 360 0
DWIDTH 4 0
BBX 3 4 0 -1
BITMAP
E0
A0
40
E0
ENDCHAR
STARTCHAR uni2083
ENCODING 8323
SWIDTH 346 0
DWIDTH 3 0
BBX 3 4 0 -1
BITMAP
E0
20
20
E0
ENDCHAR
STARTCHAR uni2084
ENCODING 8324
SWIDTH 391 0
DWIDTH 4 0
BBX 4 4 0 -1
BITMAP
20
E0
B0
60
ENDCHAR
STARTCHAR uni2085
ENCODING 8325
SWIDTH 362 0
DWIDTH 4 0
BBX 3 4 0 -1
BITMAP
60
80
60
E0
ENDCHAR
STARTCHAR uni2086
ENCODING 8326
SWIDTH 352 0
DWIDTH 4 0
BBX 3 4 0 -1
BITMAP
40
80
E0
E0
ENDCHAR
STARTCHAR uni2087
ENCODING 8327
SWIDTH 351 0
DWIDTH 4 0
BBX 3 4 0 -1
BITMAP
E0
20
40
40
ENDCHAR
STARTCHAR uni2088
ENCODING 8328
SWIDTH 356 0
DWIDTH 4 0
BBX 3 4 0 -1
BITMAP
E0
A0
E0
E0
ENDCHAR
STARTCHAR uni2089
ENCODING 8329
SWIDTH 352 0
DWIDTH 4 0
BBX 3 4 0 -1
BITMAP
E0
A0
60
40
ENDCHAR
STARTCHAR colonmonetary
ENCODING 8353
SWIDTH 500 0
DWIDTH 5 0
BBX 5 6 0 0
BITMAP
78
68
E0
70
20
60
ENDCHAR
STARTCHAR franc
ENCODING 8355
SWIDTH 702 0
DWIDTH 7 0
BBX 6 8 0 0
BITMAP
7C
64
60
68
78
60
F0
60
ENDCHAR
STARTCHAR lira
ENCODING 8356
SWIDTH 559 0
DWIDTH 6 0
BBX 5 7 0 0
BITMAP
38
68
60
60
B0
20
F8
ENDCHAR
STARTCHAR uni20A6
ENCODING 8358
SWIDTH 743 0
DWIDTH 7 0
BBX 6 8 1 0
BITMAP
C4
E4
BC
B4
DC
8C
8C
84
ENDCHAR
STARTCHAR uni20A9
ENCODING 8361
SWIDTH 998 0
DWIDTH 10 0
BBX 10 8 0 0
BITMAP
7E00
6E80
F7C0
2700
7F80
3B00
1200
1200
ENDCHAR
STARTCHAR Euro
ENCODING 8364
SWIDTH 651 0
DWIDTH 7 0
BBX 6 8 0 0
BITMAP
3C
20
60
F8
F8
60
20
3C
ENDCHAR
STARTCHAR uni20B9
ENCODING 8377
SWIDTH 604 0
DWIDTH 6 0
BBX 6 7 0 0
BITMAP
78
FC
10
60
10
18
18
ENDCHAR
STARTCHAR uni20BA
ENCODING 8378
SWIDTH 576 0
DWIDTH 6 0
BBX 6 8 0 0
BITMAP
60
60
70
F0
68
6C
68
78
ENDCHAR
STARTCHAR uni2113
ENCODING 8467
SWIDTH 504 0
DWIDTH 5 0
BBX 5 8 0 0
BITMAP
30
50
50
60
40
C0
68
70
ENDCHAR
STARTCHAR uni2116
ENCODING 8470
SWIDTH 1129 0
DWIDTH 11 0
BBX 10 8 1 0
BITMAP
C5C0
E540
B540
B480
9C00
8C00
8C00
8400
ENDCHAR
STARTCHAR uni2120
ENCODING 8480
SWIDTH 785 0
DWIDTH 8 0
BBX 7 4 0 4
BITMAP
FA
DA
3A
F6
ENDCHAR
STARTCHAR trademark
ENCODING 8482
SWIDTH 845 0
DWIDTH 8 0
BBX 8 4 0 4
BITMAP
E9
57
55
45
ENDCHAR
STARTCHAR uni2126
ENCODING 8486
SWIDTH 812 0
DWIDTH 8 0
BBX 8 7 0 0
BITMAP
3C
66
62
62
66
A5
77
ENDCHAR
STARTCHAR estimated
ENCODING 8494
SWIDTH 898 0
DWIDTH 9 0
BBX 9 7 0 0
BITMAP
3E00
4100
C180
FE00
4000
4100
3E00
ENDCHAR
STARTCHAR uni2153
ENCODING 8531
SWIDTH 913 0
DWIDTH 9 0
BBX 6 8 2 0
BITMAP
88
90
90
A0
3C
44
84
9C
ENDCHAR
STARTCHAR uni2154
ENCODING 8532
SWIDTH 913 0
DWIDTH 9 0
BBX 7 8 1 0
BITMAP
C4
A8
48
F0
1E
22
22
4E
ENDCHAR
STARTCHAR oneeighth
ENCODING 8539
SWIDTH 913 0
DWIDTH 9 0
BBX 6 8 2 0
BITMAP
88
90
90
A0
3C
54
9C
9C
ENDCHAR
STARTCHAR threeeighths
ENCODING 8540
SWIDTH 913 0
DWIDTH 9 0
BBX 7 8 1 0
BITMAP
E4
48
28
B6
5A
26
2A
4E
ENDCHAR
STARTCHAR fiveeighths
ENCODING 8541
SWIDTH 913 0
DWIDTH 9 0
BBX 7 8 1 0
BITMAP
E4
88
68
B6
5A
26
2A
4E
ENDCHAR
STARTCHAR seveneighths
ENCODING 8542
SWIDTH 913 0
DWIDTH 9 0
BBX 7 8 1 0
BITMAP
E4
48
48
50
1E
26
2A
4E
ENDCHAR
STARTCHAR partialdiff
ENCODING 8706
SWIDTH 616 0
DWIDTH 6 0
BBX 6 8 0 0
BITMAP
70
08
08
7C
4C
C8
48
70
ENDCHAR
STARTCHAR uni2206
ENCODING 8710
SWIDTH 727 0
DWIDTH 7 0
BBX 7 7 0 0
BITMAP
10
18
38
4C
4C
44
FE
ENDCHAR
STARTCHAR product
ENCODING 8719
SWIDTH 802 0
DWIDTH 8 0
BBX 6 8 1 -1
BITMAP
FC
CC
CC
CC
CC
CC
CC
CC
ENDCHAR
STARTCHAR summation
ENCODING 8721
SWIDTH 630 0
DWIDTH 6 0
BBX 6 8 0 -1
BITMAP
7C
64
30
30
20
40
44
FC
ENDCHAR
STARTCHAR minus
ENCODING 8722
SWIDTH 578 0
DWIDTH 6 0
BBX 5 1 0 3
BITMAP
F8
ENDCHAR
STARTCHAR uni2215
ENCODING 8725
SWIDTH 489 0
DWIDTH 5 0
BBX 5 8 0 0
BITMAP
08
10
10
20
20
40
40
80
ENDCHAR
STARTCHAR uni2219
ENCODING 8729
SWIDTH 274 0
DWIDTH 3 0
BBX 1 2 1 2
BITMAP
80
80
ENDCHAR
STARTCHAR radical
ENCODING 8730
SWIDTH 617 0
DWIDTH 6 0
BBX 5 10 1 -1
BITMAP
08
08
08
10
10
D0
50
70
30
20
ENDCHAR
STARTCHAR infinity
ENCODING 8734
SWIDTH 814 0
DWIDTH 8 0
BBX 8 4 0 1
BITMAP
66
99
99
66
ENDCHAR
STARTCHAR integral
ENCODING 8747
SWIDTH 446 0
DWIDTH 4 0
BBX 5 10 0 -2
BITMAP
38
60
60
60
60
60
60
60
60
C0
ENDCHAR
STARTCHAR approxequal
ENCODING 8776
SWIDTH 585 0
DWIDTH 6 0
BBX 4 4 1 2
BITMAP
80
70
80
70
ENDCHAR
STARTCHAR notequal
ENCODING 8800
SWIDTH 598 0
DWIDTH 6 0
BBX 5 5 0 1
BITMAP
10
F8
20
F8
20
ENDCHAR
STARTCHAR lessequal
ENCODING 8804
SWIDTH 578 0
DWIDTH 6 0
BBX 5 7 0 0
BITMAP
08
30
C0
60
18
00
F8
ENDCHAR
STARTCHAR greaterequal
ENCODING 8805
SWIDTH 578 0
DWIDTH 6 0
BBX 5 7 0 0
BITMAP
C0
30
08
10
60
00
F8
ENDCHAR
STARTCHAR lozenge
ENCODING 9674
SWIDTH 633 0
DWIDTH 6 0
BBX 6 9 0 -1
BITMAP
30
30
48
48
84
48
48
30
30
ENDCHAR
STARTCHAR .notdef
ENCODING -1
SWIDTH 809 0
DWIDTH 8 0
BBX 6 13 1 -4
BITMAP
FC
CC
D4
D4
B4
A4
A4
94
B4
D4
D4
CC
FC
ENDCHAR
STARTCHAR uni1ECD.001
ENCODING -1
SWIDTH 589 0
DWIDTH 6 0
BBX 5 7 0 -2
BITMAP
70
48
C8
48
50
20
30
ENDCHAR
STARTCHAR f_f
ENCODING -1
SWIDTH 658 0
DWIDTH 7 0
BBX 7 8 1 0
BITMAP
0C
FE
98
F8
98
98
98
98
ENDCHAR
STARTCHAR f_f_i
ENCODING -1
SWIDTH 925 0
DWIDTH 9 0
BBX 7 8 1 0
BITMAP
6E
BA
98
FE
9A
9A
9A
9A
ENDCHAR
STARTCHAR f_f_l
ENCODING -1
SWIDTH 944 0
DWIDTH 9 0
BBX 8 8 1 0
BITMAP
6F
BB
9B
FF
9B
9B
9B
9B
ENDCHAR
STARTCHAR f_i
ENCODING -1
SWIDTH 613 0
DWIDTH 6 0
BBX 4 8 1 0
BITMAP
70
90
80
F0
90
90
90
90
ENDCHAR
STARTCHAR f_l
ENCODING -1
SWIDTH 634 0
DWIDTH 6 0
BBX 4 8 1 0
BITMAP
70
90
90
F0
90
90
90
90
ENDCHAR
STARTCHAR zero.denominator
ENCODING -1
SWIDTH 419 0
DWIDTH 4 0
BBX 4 4 0 0
BITMAP
F0
90
90
E0
ENDCHAR
STARTCHAR one.denominator
ENCODING -1
SWIDTH 279 0
DWIDTH 3 0
BBX 1 4 1 0
BITMAP
80
80
80
80
ENDCHAR
STARTCHAR two.denominator
ENCODING -1
SWIDTH 360 0
DWIDTH 4 0
BBX 3 4 0 0
BITMAP
E0
A0
40
E0
ENDCHAR
STARTCHAR three.denominator
ENCODING -1
SWIDTH 346 0
DWIDTH 3 0
BBX 3 4 0 0
BITMAP
E0
20
20
E0
ENDCHAR
STARTCHAR four.denominator
ENCODING -1
SWIDTH 391 0
DWIDTH 4 0
BBX 4 4 0 0
BITMAP
20
E0
B0
60
ENDCHAR
STARTCHAR five.denominator
ENCODING -1
SWIDTH 362 0
DWIDTH 4 0
BBX 3 4 0 0
BITMAP
60
80
60
E0
ENDCHAR
STARTCHAR six.denominator
ENCODING -1
SWIDTH 352 0
DWIDTH 4 0
BBX 3 4 0 0
BITMAP
40
80
E0
E0
ENDCHAR
STARTCHAR seven.denominator
ENCODING -1
SWIDTH 351 0
DWIDTH 4 0
BBX 3 4 0 0
BITMAP
E0
20
40
40
ENDCHAR
STARTCHAR eight.denominator
ENCODING -1
SWIDTH 356 0
DWIDTH 4 0
BBX 3 4 0 0
BITMAP
E0
A0
E0
E0
ENDCHAR
STARTCHAR nine.denominator
ENCODING -1
SWIDTH 352 0
DWIDTH 4 0
BBX 3 4 0 0
BITMAP
E0
A0
60
40
ENDCHAR
STARTCHAR zero.numerator
ENCODING -1
SWIDTH 419 0
DWIDTH 4 0
BBX 4 4 0 4
BITMAP
60
90
90
F0
ENDCHAR
STARTCHAR one.numerator
ENCODING -1
SWIDTH 279 0
DWIDTH 3 0
BBX 1 4 1 4
BITMAP
80
80
80
80
ENDCHAR
STARTCHAR two.numerator
ENCODING -1
SWIDTH 360 0
DWIDTH 4 0
BBX 3 4 0 4
BITMAP
E0
A0
40
E0
ENDCHAR
STARTCHAR three.numerator
ENCODING -1
SWIDTH 346 0
DWIDTH 3 0
BBX 3 4 0 4
BITMAP
E0
20
20
E0
ENDCHAR
STARTCHAR four.numerator
ENCODING -1
SWIDTH 391 0
DWIDTH 4 0
BBX 4 4 0 4
BITMAP
20
E0
B0
70
ENDCHAR
STARTCHAR five.numerator
ENCODING -1
SWIDTH 362 0
DWIDTH 4 0
BBX 3 4 0 4
BITMAP
60
80
60
E0
ENDCHAR
STARTCHAR six.numerator
ENCODING -1
SWIDTH 352 0
DWIDTH 4 0
BBX 3 4 0 4
BITMAP
40
40
A0
E0
ENDCHAR
STARTCHAR seven.numerator
ENCODING -1
SWIDTH 351 0
DWIDTH 4 0
BBX 3 4 0 4
BITMAP
E0
20
40
40
ENDCHAR
STARTCHAR eight.numerator
ENCODING -1
SWIDTH 356 0
DWIDTH 4 0
BBX 3 4 0 4
BITMAP
E0
A0
E0
E0
ENDCHAR
STARTCHAR nine.numerator
ENCODING -1
SWIDTH 352 0
DWIDTH 4 0
BBX 3 4 0 4
BITMAP
E0
A0
A0
60
ENDCHAR
STARTCHAR uni030F.cap
ENCODING -1
SWIDTH 0 0
DWIDTH 0 0
BBX 4 1 -5 8
BITMAP
F0
ENDCHAR
STARTCHAR uni0311.cap
ENCODING -1
SWIDTH 0 0
DWIDTH 0 0
BBX 3 1 -3 8
BITMAP
E0
ENDCHAR
STARTCHAR caron.alt
ENCODING -1
SWIDTH 186 0
DWIDTH 2 0
BBX 2 2 0 6
BITMAP
C0
40
ENDCHAR
STARTCHAR acute.case
ENCODING -1
SWIDTH 313 0
DWIDTH 3 0
BBX 2 1 1 8
BITMAP
C0
ENDCHAR
STARTCHAR breve.case
ENCODING -1
SWIDTH 353 0
DWIDTH 4 0
BBX 3 1 0 8
BITMAP
E0
ENDCHAR
STARTCHAR caron.case
ENCODING -1
SWIDTH 424 0
DWIDTH 4 0
BBX 2 1 1 8
BITMAP
C0
ENDCHAR
STARTCHAR circumflex.case
ENCODING -1
SWIDTH 424 0
DWIDTH 4 0
BBX 2 1 1 8
BITMAP
C0
ENDCHAR
STARTCHAR dieresis.case
ENCODING -1
SWIDTH 342 0
DWIDTH 3 0
BBX 3 1 0 8
BITMAP
A0
ENDCHAR
STARTCHAR dotaccent.case
ENCODING -1
SWIDTH 157 0
DWIDTH 2 0
BBX 1 1 0 8
BITMAP
80
ENDCHAR
STARTCHAR grave.case
ENCODING -1
SWIDTH 313 0
DWIDTH 3 0
BBX 2 1 0 8
BITMAP
C0
ENDCHAR
STARTCHAR hungarumlaut.case
ENCODING -1
SWIDTH 535 0
DWIDTH 5 0
BBX 4 1 1 8
BITMAP
F0
ENDCHAR
STARTCHAR macron.case
ENCODING -1
SWIDTH 360 0
DWIDTH 4 0
BBX 3 1 0 8
BITMAP
E0
ENDCHAR
STARTCHAR ring.case
ENCODING -1
SWIDTH 213 0
DWIDTH 2 0
BBX 2 1 0 8
BITMAP
C0
ENDCHAR
STARTCHAR tilde.case
ENCODING -1
SWIDTH 412 0
DWIDTH 4 0
BBX 4 1 0 8
BITMAP
F0
ENDCHAR
STARTCHAR uni03060301
ENCODING -1
SWIDTH 0 0
DWIDTH 0 0
BBX 2 3 -4 5
BITMAP
C0
00
C0
ENDCHAR
STARTCHAR uni03060300
ENCODING -1
SWIDTH 0 0
DWIDTH 0 0
BBX 2 3 -4 5
BITMAP
80
00
C0
ENDCHAR
STARTCHAR uni03060309
ENCODING -1
SWIDTH 0 0
DWIDTH 0 0
BBX 3 3 -5 5
BITMAP
E0
00
60
ENDCHAR
STARTCHAR uni03060303
ENCODING -1
SWIDTH 0 0
DWIDTH 0 0
BBX 4 3 -5 5
BITMAP
F0
80
60
ENDCHAR
STARTCHAR uni03020301
ENCODING -1
SWIDTH 0 0
DWIDTH 0 0
BBX 2 3 -4 5
BITMAP
40
80
C0
ENDCHAR
STARTCHAR uni03020300
ENCODING -1
SWIDTH 0 0
DWIDTH 0 0
BBX 3 3 -5 5
BITMAP
C0
00
60
ENDCHAR
STARTCHAR uni03020309
ENCODING -1
SWIDTH 0 0
DWIDTH 0 0
BBX 3 3 -4 5
BITMAP
60
20
C0
ENDCHAR
STARTCHAR uni03020303
ENCODING -1
SWIDTH 0 0
DWIDTH 0 0
BBX 4 3 -5 5
BITMAP
F0
00
60
ENDCHAR
STARTCHAR NULL
ENCODING -1
SWIDTH 0 0
DWIDTH 0 0
BBX 1 1 0 0
BITMAP
00
ENDCHAR
STARTCHAR espaciador
ENCODING -1
SWIDTH 158 0
DWIDTH 2 0
BBX 2 12 0 -4
BITMAP
C0
C0
C0
C0
C0
C0
C0
C0
C0
C0
C0
C0
ENDCHAR
STARTCHAR dotbelow
ENCODING -1
SWIDTH 181 0
DWIDTH 2 0
BBX 2 2 0 -3
BITMAP
C0
80
ENDCHAR
ENDFONT
